<mxfile host="app.diagrams.net" modified="2021-04-11T18:49:16.447Z" agent="5.0 (Macintosh)" etag="LtEjaSVTqwwQvUoujcDT" version="14.5.10" type="github">
  <diagram name="Page-1" id="e7e014a7-5840-1c2e-5031-d8a46d1fe8dd">
    <mxGraphModel dx="3451" dy="3244" grid="1" gridSize="10" guides="1" tooltips="1" connect="1" arrows="1" fold="1" page="1" pageScale="1" pageWidth="1169" pageHeight="826" background="#ffffff" math="0" shadow="0">
      <root>
        <mxCell id="0" />
        <mxCell id="1" parent="0" />
        <mxCell id="j_IWQZukRgsDgJ5B7h0S-45" value="PersonalBoard" style="swimlane;fontStyle=1;align=center;verticalAlign=top;childLayout=stackLayout;horizontal=1;startSize=26;horizontalStack=0;resizeParent=1;resizeParentMax=0;resizeLast=0;collapsible=1;marginBottom=0;" parent="1" vertex="1">
          <mxGeometry x="-1490" y="-1440" width="280" height="136" as="geometry" />
        </mxCell>
        <mxCell id="j_IWQZukRgsDgJ5B7h0S-46" value="-faithTrack: FaithTrack" style="text;strokeColor=none;fillColor=none;align=left;verticalAlign=top;spacingLeft=4;spacingRight=4;overflow=hidden;rotatable=0;points=[[0,0.5],[1,0.5]];portConstraint=eastwest;" parent="j_IWQZukRgsDgJ5B7h0S-45" vertex="1">
          <mxGeometry y="26" width="280" height="24" as="geometry" />
        </mxCell>
        <mxCell id="6MP6MsQXi6saDkDlqXph-24" value="-warehouseDepots: WarehouseDepots" style="text;strokeColor=none;fillColor=none;align=left;verticalAlign=top;spacingLeft=4;spacingRight=4;overflow=hidden;rotatable=0;points=[[0,0.5],[1,0.5]];portConstraint=eastwest;" parent="j_IWQZukRgsDgJ5B7h0S-45" vertex="1">
          <mxGeometry y="50" width="280" height="26" as="geometry" />
        </mxCell>
        <mxCell id="6MP6MsQXi6saDkDlqXph-25" value="-strongbox: Strongbox" style="text;strokeColor=none;fillColor=none;align=left;verticalAlign=top;spacingLeft=4;spacingRight=4;overflow=hidden;rotatable=0;points=[[0,0.5],[1,0.5]];portConstraint=eastwest;" parent="j_IWQZukRgsDgJ5B7h0S-45" vertex="1">
          <mxGeometry y="76" width="280" height="26" as="geometry" />
        </mxCell>
        <mxCell id="6MP6MsQXi6saDkDlqXph-26" value="-slotsDevelopmentCards: SlotsDevelopmentCards" style="text;strokeColor=none;fillColor=none;align=left;verticalAlign=top;spacingLeft=4;spacingRight=4;overflow=hidden;rotatable=0;points=[[0,0.5],[1,0.5]];portConstraint=eastwest;" parent="j_IWQZukRgsDgJ5B7h0S-45" vertex="1">
          <mxGeometry y="102" width="280" height="26" as="geometry" />
        </mxCell>
        <mxCell id="j_IWQZukRgsDgJ5B7h0S-47" value="" style="line;strokeWidth=1;fillColor=none;align=left;verticalAlign=middle;spacingTop=-1;spacingLeft=3;spacingRight=3;rotatable=0;labelPosition=right;points=[];portConstraint=eastwest;" parent="j_IWQZukRgsDgJ5B7h0S-45" vertex="1">
          <mxGeometry y="128" width="280" height="8" as="geometry" />
        </mxCell>
        <mxCell id="j_IWQZukRgsDgJ5B7h0S-62" value="«enumeration»&#xa;FavorTiles" style="swimlane;fontStyle=1;childLayout=stackLayout;horizontal=1;startSize=40;fillColor=none;horizontalStack=0;resizeParent=1;resizeParentMax=0;resizeLast=0;collapsible=1;marginBottom=0;" parent="1" vertex="1">
          <mxGeometry x="-895.5" y="-1501" width="115.5" height="118" as="geometry" />
        </mxCell>
        <mxCell id="j_IWQZukRgsDgJ5B7h0S-63" value="covered" style="text;strokeColor=none;fillColor=none;align=left;verticalAlign=top;spacingLeft=4;spacingRight=4;overflow=hidden;rotatable=0;points=[[0,0.5],[1,0.5]];portConstraint=eastwest;" parent="j_IWQZukRgsDgJ5B7h0S-62" vertex="1">
          <mxGeometry y="40" width="115.5" height="26" as="geometry" />
        </mxCell>
        <mxCell id="j_IWQZukRgsDgJ5B7h0S-64" value="ditch" style="text;strokeColor=none;fillColor=none;align=left;verticalAlign=top;spacingLeft=4;spacingRight=4;overflow=hidden;rotatable=0;points=[[0,0.5],[1,0.5]];portConstraint=eastwest;" parent="j_IWQZukRgsDgJ5B7h0S-62" vertex="1">
          <mxGeometry y="66" width="115.5" height="26" as="geometry" />
        </mxCell>
        <mxCell id="j_IWQZukRgsDgJ5B7h0S-65" value="turned" style="text;strokeColor=none;fillColor=none;align=left;verticalAlign=top;spacingLeft=4;spacingRight=4;overflow=hidden;rotatable=0;points=[[0,0.5],[1,0.5]];portConstraint=eastwest;" parent="j_IWQZukRgsDgJ5B7h0S-62" vertex="1">
          <mxGeometry y="92" width="115.5" height="26" as="geometry" />
        </mxCell>
        <mxCell id="j_IWQZukRgsDgJ5B7h0S-69" value="" style="endArrow=none;html=1;entryX=0;entryY=0.32;entryDx=0;entryDy=0;exitX=0.999;exitY=0.331;exitDx=0;exitDy=0;entryPerimeter=0;exitPerimeter=0;" parent="1" source="6MP6MsQXi6saDkDlqXph-27" target="j_IWQZukRgsDgJ5B7h0S-62" edge="1">
          <mxGeometry width="50" height="50" relative="1" as="geometry">
            <mxPoint x="-945.5" y="-1498" as="sourcePoint" />
            <mxPoint x="-695.5" y="-658" as="targetPoint" />
          </mxGeometry>
        </mxCell>
        <mxCell id="j_IWQZukRgsDgJ5B7h0S-74" value="FaithTrack" style="swimlane;fontStyle=1;align=center;verticalAlign=top;childLayout=stackLayout;horizontal=1;startSize=26;horizontalStack=0;resizeParent=1;resizeParentMax=0;resizeLast=0;collapsible=1;marginBottom=0;" parent="1" vertex="1">
          <mxGeometry x="-1125.5" y="-1550" width="180" height="216" as="geometry" />
        </mxCell>
        <mxCell id="6MP6MsQXi6saDkDlqXph-28" value="-faithMarker: int" style="text;strokeColor=none;fillColor=none;align=left;verticalAlign=top;spacingLeft=4;spacingRight=4;overflow=hidden;rotatable=0;points=[[0,0.5],[1,0.5]];portConstraint=eastwest;" parent="j_IWQZukRgsDgJ5B7h0S-74" vertex="1">
          <mxGeometry y="26" width="180" height="26" as="geometry" />
        </mxCell>
        <mxCell id="I1I3rjsC-SGCzknYV9vt-13" value="-PlayerList: ArrayList&lt;Player&gt;" style="text;strokeColor=none;fillColor=none;align=left;verticalAlign=top;spacingLeft=4;spacingRight=4;overflow=hidden;rotatable=0;points=[[0,0.5],[1,0.5]];portConstraint=eastwest;" parent="j_IWQZukRgsDgJ5B7h0S-74" vertex="1">
          <mxGeometry y="52" width="180" height="26" as="geometry" />
        </mxCell>
        <mxCell id="6MP6MsQXi6saDkDlqXph-27" value="-favorTiles: FavorTiles[3]&#xa;" style="text;strokeColor=none;fillColor=none;align=left;verticalAlign=top;spacingLeft=4;spacingRight=4;overflow=hidden;rotatable=0;points=[[0,0.5],[1,0.5]];portConstraint=eastwest;" parent="j_IWQZukRgsDgJ5B7h0S-74" vertex="1">
          <mxGeometry y="78" width="180" height="26" as="geometry" />
        </mxCell>
        <mxCell id="j_IWQZukRgsDgJ5B7h0S-76" value="" style="line;strokeWidth=1;fillColor=none;align=left;verticalAlign=middle;spacingTop=-1;spacingLeft=3;spacingRight=3;rotatable=0;labelPosition=right;points=[];portConstraint=eastwest;" parent="j_IWQZukRgsDgJ5B7h0S-74" vertex="1">
          <mxGeometry y="104" width="180" height="8" as="geometry" />
        </mxCell>
        <mxCell id="j_IWQZukRgsDgJ5B7h0S-77" value="+goOn(int)" style="text;strokeColor=none;fillColor=none;align=left;verticalAlign=top;spacingLeft=4;spacingRight=4;overflow=hidden;rotatable=0;points=[[0,0.5],[1,0.5]];portConstraint=eastwest;" parent="j_IWQZukRgsDgJ5B7h0S-74" vertex="1">
          <mxGeometry y="112" width="180" height="26" as="geometry" />
        </mxCell>
        <mxCell id="zsWBfRV9gmnBReKQ3E4T-20" value="+victoryPoints(): int" style="text;strokeColor=none;fillColor=none;align=left;verticalAlign=top;spacingLeft=4;spacingRight=4;overflow=hidden;rotatable=0;points=[[0,0.5],[1,0.5]];portConstraint=eastwest;" parent="j_IWQZukRgsDgJ5B7h0S-74" vertex="1">
          <mxGeometry y="138" width="180" height="26" as="geometry" />
        </mxCell>
        <mxCell id="zsWBfRV9gmnBReKQ3E4T-41" value="+popeState(ArrayList&lt;Player&gt;)" style="text;strokeColor=none;fillColor=none;align=left;verticalAlign=top;spacingLeft=4;spacingRight=4;overflow=hidden;rotatable=0;points=[[0,0.5],[1,0.5]];portConstraint=eastwest;" parent="j_IWQZukRgsDgJ5B7h0S-74" vertex="1">
          <mxGeometry y="164" width="180" height="26" as="geometry" />
        </mxCell>
        <mxCell id="zsWBfRV9gmnBReKQ3E4T-42" value="+arrived()" style="text;strokeColor=none;fillColor=none;align=left;verticalAlign=top;spacingLeft=4;spacingRight=4;overflow=hidden;rotatable=0;points=[[0,0.5],[1,0.5]];portConstraint=eastwest;" parent="j_IWQZukRgsDgJ5B7h0S-74" vertex="1">
          <mxGeometry y="190" width="180" height="26" as="geometry" />
        </mxCell>
        <mxCell id="j_IWQZukRgsDgJ5B7h0S-78" value="WarehouseDepots" style="swimlane;fontStyle=1;align=center;verticalAlign=top;childLayout=stackLayout;horizontal=1;startSize=26;horizontalStack=0;resizeParent=1;resizeParentMax=0;resizeLast=0;collapsible=1;marginBottom=0;" parent="1" vertex="1">
          <mxGeometry x="-1810" y="-1140" width="190" height="146" as="geometry" />
        </mxCell>
        <mxCell id="j_IWQZukRgsDgJ5B7h0S-79" value="-resource: Resource[6]" style="text;strokeColor=none;fillColor=none;align=left;verticalAlign=top;spacingLeft=4;spacingRight=4;overflow=hidden;rotatable=0;points=[[0,0.5],[1,0.5]];portConstraint=eastwest;" parent="j_IWQZukRgsDgJ5B7h0S-78" vertex="1">
          <mxGeometry y="26" width="190" height="34" as="geometry" />
        </mxCell>
        <mxCell id="j_IWQZukRgsDgJ5B7h0S-80" value="" style="line;strokeWidth=1;fillColor=none;align=left;verticalAlign=middle;spacingTop=-1;spacingLeft=3;spacingRight=3;rotatable=0;labelPosition=right;points=[];portConstraint=eastwest;" parent="j_IWQZukRgsDgJ5B7h0S-78" vertex="1">
          <mxGeometry y="60" width="190" height="8" as="geometry" />
        </mxCell>
        <mxCell id="j_IWQZukRgsDgJ5B7h0S-81" value="+addResouce(Resource, int)" style="text;strokeColor=none;fillColor=none;align=left;verticalAlign=top;spacingLeft=4;spacingRight=4;overflow=hidden;rotatable=0;points=[[0,0.5],[1,0.5]];portConstraint=eastwest;" parent="j_IWQZukRgsDgJ5B7h0S-78" vertex="1">
          <mxGeometry y="68" width="190" height="26" as="geometry" />
        </mxCell>
        <mxCell id="zsWBfRV9gmnBReKQ3E4T-17" value="+moveResouce(int, int)" style="text;strokeColor=none;fillColor=none;align=left;verticalAlign=top;spacingLeft=4;spacingRight=4;overflow=hidden;rotatable=0;points=[[0,0.5],[1,0.5]];portConstraint=eastwest;" parent="j_IWQZukRgsDgJ5B7h0S-78" vertex="1">
          <mxGeometry y="94" width="190" height="26" as="geometry" />
        </mxCell>
        <mxCell id="zsWBfRV9gmnBReKQ3E4T-18" value="+removeResource(int): Resource" style="text;strokeColor=none;fillColor=none;align=left;verticalAlign=top;spacingLeft=4;spacingRight=4;overflow=hidden;rotatable=0;points=[[0,0.5],[1,0.5]];portConstraint=eastwest;" parent="j_IWQZukRgsDgJ5B7h0S-78" vertex="1">
          <mxGeometry y="120" width="190" height="26" as="geometry" />
        </mxCell>
        <mxCell id="j_IWQZukRgsDgJ5B7h0S-86" value="StrongBox" style="swimlane;fontStyle=1;align=center;verticalAlign=top;childLayout=stackLayout;horizontal=1;startSize=26;horizontalStack=0;resizeParent=1;resizeParentMax=0;resizeLast=0;collapsible=1;marginBottom=0;" parent="1" vertex="1">
          <mxGeometry x="-1470.5" y="-1200" width="230" height="292" as="geometry" />
        </mxCell>
        <mxCell id="j_IWQZukRgsDgJ5B7h0S-87" value="-coin: int" style="text;strokeColor=none;fillColor=none;align=left;verticalAlign=top;spacingLeft=4;spacingRight=4;overflow=hidden;rotatable=0;points=[[0,0.5],[1,0.5]];portConstraint=eastwest;" parent="j_IWQZukRgsDgJ5B7h0S-86" vertex="1">
          <mxGeometry y="26" width="230" height="24" as="geometry" />
        </mxCell>
        <mxCell id="I1I3rjsC-SGCzknYV9vt-15" value="-servant: int" style="text;strokeColor=none;fillColor=none;align=left;verticalAlign=top;spacingLeft=4;spacingRight=4;overflow=hidden;rotatable=0;points=[[0,0.5],[1,0.5]];portConstraint=eastwest;" parent="j_IWQZukRgsDgJ5B7h0S-86" vertex="1">
          <mxGeometry y="50" width="230" height="26" as="geometry" />
        </mxCell>
        <mxCell id="I1I3rjsC-SGCzknYV9vt-16" value="-shield: int" style="text;strokeColor=none;fillColor=none;align=left;verticalAlign=top;spacingLeft=4;spacingRight=4;overflow=hidden;rotatable=0;points=[[0,0.5],[1,0.5]];portConstraint=eastwest;" parent="j_IWQZukRgsDgJ5B7h0S-86" vertex="1">
          <mxGeometry y="76" width="230" height="26" as="geometry" />
        </mxCell>
        <mxCell id="I1I3rjsC-SGCzknYV9vt-14" value="-stone: int" style="text;strokeColor=none;fillColor=none;align=left;verticalAlign=top;spacingLeft=4;spacingRight=4;overflow=hidden;rotatable=0;points=[[0,0.5],[1,0.5]];portConstraint=eastwest;" parent="j_IWQZukRgsDgJ5B7h0S-86" vertex="1">
          <mxGeometry y="102" width="230" height="26" as="geometry" />
        </mxCell>
        <mxCell id="j_IWQZukRgsDgJ5B7h0S-88" value="" style="line;strokeWidth=1;fillColor=none;align=left;verticalAlign=middle;spacingTop=-1;spacingLeft=3;spacingRight=3;rotatable=0;labelPosition=right;points=[];portConstraint=eastwest;" parent="j_IWQZukRgsDgJ5B7h0S-86" vertex="1">
          <mxGeometry y="128" width="230" height="8" as="geometry" />
        </mxCell>
        <mxCell id="j_IWQZukRgsDgJ5B7h0S-89" value="+getCoin(): int" style="text;strokeColor=none;fillColor=none;align=left;verticalAlign=top;spacingLeft=4;spacingRight=4;overflow=hidden;rotatable=0;points=[[0,0.5],[1,0.5]];portConstraint=eastwest;" parent="j_IWQZukRgsDgJ5B7h0S-86" vertex="1">
          <mxGeometry y="136" width="230" height="26" as="geometry" />
        </mxCell>
        <mxCell id="zsWBfRV9gmnBReKQ3E4T-8" value="+getStone(): int" style="text;strokeColor=none;fillColor=none;align=left;verticalAlign=top;spacingLeft=4;spacingRight=4;overflow=hidden;rotatable=0;points=[[0,0.5],[1,0.5]];portConstraint=eastwest;" parent="j_IWQZukRgsDgJ5B7h0S-86" vertex="1">
          <mxGeometry y="162" width="230" height="26" as="geometry" />
        </mxCell>
        <mxCell id="zsWBfRV9gmnBReKQ3E4T-10" value="+getServant(): int" style="text;strokeColor=none;fillColor=none;align=left;verticalAlign=top;spacingLeft=4;spacingRight=4;overflow=hidden;rotatable=0;points=[[0,0.5],[1,0.5]];portConstraint=eastwest;" parent="j_IWQZukRgsDgJ5B7h0S-86" vertex="1">
          <mxGeometry y="188" width="230" height="26" as="geometry" />
        </mxCell>
        <mxCell id="zsWBfRV9gmnBReKQ3E4T-11" value="+getShield(): int" style="text;strokeColor=none;fillColor=none;align=left;verticalAlign=top;spacingLeft=4;spacingRight=4;overflow=hidden;rotatable=0;points=[[0,0.5],[1,0.5]];portConstraint=eastwest;" parent="j_IWQZukRgsDgJ5B7h0S-86" vertex="1">
          <mxGeometry y="214" width="230" height="26" as="geometry" />
        </mxCell>
        <mxCell id="zsWBfRV9gmnBReKQ3E4T-12" value="+add(Resource, int)" style="text;strokeColor=none;fillColor=none;align=left;verticalAlign=top;spacingLeft=4;spacingRight=4;overflow=hidden;rotatable=0;points=[[0,0.5],[1,0.5]];portConstraint=eastwest;" parent="j_IWQZukRgsDgJ5B7h0S-86" vertex="1">
          <mxGeometry y="240" width="230" height="26" as="geometry" />
        </mxCell>
        <mxCell id="zsWBfRV9gmnBReKQ3E4T-13" value="+remove(Resource, int)" style="text;strokeColor=none;fillColor=none;align=left;verticalAlign=top;spacingLeft=4;spacingRight=4;overflow=hidden;rotatable=0;points=[[0,0.5],[1,0.5]];portConstraint=eastwest;" parent="j_IWQZukRgsDgJ5B7h0S-86" vertex="1">
          <mxGeometry y="266" width="230" height="26" as="geometry" />
        </mxCell>
        <mxCell id="j_IWQZukRgsDgJ5B7h0S-109" value="SlotsDevelopmentCards" style="swimlane;fontStyle=1;align=center;verticalAlign=top;childLayout=stackLayout;horizontal=1;startSize=26;horizontalStack=0;resizeParent=1;resizeParentMax=0;resizeLast=0;collapsible=1;marginBottom=0;" parent="1" vertex="1">
          <mxGeometry x="-1125.5" y="-1310" width="345.5" height="240" as="geometry" />
        </mxCell>
        <mxCell id="j_IWQZukRgsDgJ5B7h0S-110" value="-Slot: DevelopmentCard[3][3]&#xa;" style="text;strokeColor=none;fillColor=none;align=left;verticalAlign=top;spacingLeft=4;spacingRight=4;overflow=hidden;rotatable=0;points=[[0,0.5],[1,0.5]];portConstraint=eastwest;" parent="j_IWQZukRgsDgJ5B7h0S-109" vertex="1">
          <mxGeometry y="26" width="345.5" height="24" as="geometry" />
        </mxCell>
        <mxCell id="Tb0850ULKJEOKu3QnTIc-2" value="-DevelopmentCard[3]" style="text;strokeColor=none;fillColor=none;align=left;verticalAlign=top;spacingLeft=4;spacingRight=4;overflow=hidden;rotatable=0;points=[[0,0.5],[1,0.5]];portConstraint=eastwest;" parent="j_IWQZukRgsDgJ5B7h0S-109" vertex="1">
          <mxGeometry y="50" width="345.5" height="26" as="geometry" />
        </mxCell>
        <mxCell id="j_IWQZukRgsDgJ5B7h0S-111" value="" style="line;strokeWidth=1;fillColor=none;align=left;verticalAlign=middle;spacingTop=-1;spacingLeft=3;spacingRight=3;rotatable=0;labelPosition=right;points=[];portConstraint=eastwest;" parent="j_IWQZukRgsDgJ5B7h0S-109" vertex="1">
          <mxGeometry y="76" width="345.5" height="8" as="geometry" />
        </mxCell>
        <mxCell id="j_IWQZukRgsDgJ5B7h0S-112" value="+addDevelopmentCard(int, DevelopmentCard)" style="text;strokeColor=none;fillColor=none;align=left;verticalAlign=top;spacingLeft=4;spacingRight=4;overflow=hidden;rotatable=0;points=[[0,0.5],[1,0.5]];portConstraint=eastwest;" parent="j_IWQZukRgsDgJ5B7h0S-109" vertex="1">
          <mxGeometry y="84" width="345.5" height="26" as="geometry" />
        </mxCell>
        <mxCell id="6MP6MsQXi6saDkDlqXph-30" value="-seventhSlotOccupied()" style="text;strokeColor=none;fillColor=none;align=left;verticalAlign=top;spacingLeft=4;spacingRight=4;overflow=hidden;rotatable=0;points=[[0,0.5],[1,0.5]];portConstraint=eastwest;" parent="j_IWQZukRgsDgJ5B7h0S-109" vertex="1">
          <mxGeometry y="110" width="345.5" height="26" as="geometry" />
        </mxCell>
        <mxCell id="zsWBfRV9gmnBReKQ3E4T-14" value="-placeCard(int, int DevelopmentCard)" style="text;strokeColor=none;fillColor=none;align=left;verticalAlign=top;spacingLeft=4;spacingRight=4;overflow=hidden;rotatable=0;points=[[0,0.5],[1,0.5]];portConstraint=eastwest;" parent="j_IWQZukRgsDgJ5B7h0S-109" vertex="1">
          <mxGeometry y="136" width="345.5" height="26" as="geometry" />
        </mxCell>
        <mxCell id="Tb0850ULKJEOKu3QnTIc-1" value="-checkSlot" style="text;strokeColor=none;fillColor=none;align=left;verticalAlign=top;spacingLeft=4;spacingRight=4;overflow=hidden;rotatable=0;points=[[0,0.5],[1,0.5]];portConstraint=eastwest;" parent="j_IWQZukRgsDgJ5B7h0S-109" vertex="1">
          <mxGeometry y="162" width="345.5" height="26" as="geometry" />
        </mxCell>
        <mxCell id="zsWBfRV9gmnBReKQ3E4T-15" value="+viewActiveCards()" style="text;strokeColor=none;fillColor=none;align=left;verticalAlign=top;spacingLeft=4;spacingRight=4;overflow=hidden;rotatable=0;points=[[0,0.5],[1,0.5]];portConstraint=eastwest;" parent="j_IWQZukRgsDgJ5B7h0S-109" vertex="1">
          <mxGeometry y="188" width="345.5" height="26" as="geometry" />
        </mxCell>
        <mxCell id="Tb0850ULKJEOKu3QnTIc-3" value="+victoryPoints(); int" style="text;strokeColor=none;fillColor=none;align=left;verticalAlign=top;spacingLeft=4;spacingRight=4;overflow=hidden;rotatable=0;points=[[0,0.5],[1,0.5]];portConstraint=eastwest;" parent="j_IWQZukRgsDgJ5B7h0S-109" vertex="1">
          <mxGeometry y="214" width="345.5" height="26" as="geometry" />
        </mxCell>
        <mxCell id="j_IWQZukRgsDgJ5B7h0S-113" value="DevelopmentCard" style="swimlane;fontStyle=1;align=center;verticalAlign=top;childLayout=stackLayout;horizontal=1;startSize=26;horizontalStack=0;resizeParent=1;resizeParentMax=0;resizeLast=0;collapsible=1;marginBottom=0;" parent="1" vertex="1">
          <mxGeometry x="-240" y="-1918" width="250" height="294" as="geometry" />
        </mxCell>
        <mxCell id="j_IWQZukRgsDgJ5B7h0S-137" value="-cost: Resource[3]" style="text;strokeColor=none;fillColor=none;align=left;verticalAlign=top;spacingLeft=4;spacingRight=4;overflow=hidden;rotatable=0;points=[[0,0.5],[1,0.5]];portConstraint=eastwest;" parent="j_IWQZukRgsDgJ5B7h0S-113" vertex="1">
          <mxGeometry y="26" width="250" height="26" as="geometry" />
        </mxCell>
        <mxCell id="Tb0850ULKJEOKu3QnTIc-4" value="-costNumber: int[3]" style="text;strokeColor=none;fillColor=none;align=left;verticalAlign=top;spacingLeft=4;spacingRight=4;overflow=hidden;rotatable=0;points=[[0,0.5],[1,0.5]];portConstraint=eastwest;" parent="j_IWQZukRgsDgJ5B7h0S-113" vertex="1">
          <mxGeometry y="52" width="250" height="26" as="geometry" />
        </mxCell>
        <mxCell id="j_IWQZukRgsDgJ5B7h0S-139" value="-type: Type" style="text;strokeColor=none;fillColor=none;align=left;verticalAlign=top;spacingLeft=4;spacingRight=4;overflow=hidden;rotatable=0;points=[[0,0.5],[1,0.5]];portConstraint=eastwest;" parent="j_IWQZukRgsDgJ5B7h0S-113" vertex="1">
          <mxGeometry y="78" width="250" height="26" as="geometry" />
        </mxCell>
        <mxCell id="j_IWQZukRgsDgJ5B7h0S-138" value="-level: int" style="text;strokeColor=none;fillColor=none;align=left;verticalAlign=top;spacingLeft=4;spacingRight=4;overflow=hidden;rotatable=0;points=[[0,0.5],[1,0.5]];portConstraint=eastwest;" parent="j_IWQZukRgsDgJ5B7h0S-113" vertex="1">
          <mxGeometry y="104" width="250" height="26" as="geometry" />
        </mxCell>
        <mxCell id="j_IWQZukRgsDgJ5B7h0S-140" value="-requirements: Resource[2]" style="text;strokeColor=none;fillColor=none;align=left;verticalAlign=top;spacingLeft=4;spacingRight=4;overflow=hidden;rotatable=0;points=[[0,0.5],[1,0.5]];portConstraint=eastwest;" parent="j_IWQZukRgsDgJ5B7h0S-113" vertex="1">
          <mxGeometry y="130" width="250" height="26" as="geometry" />
        </mxCell>
        <mxCell id="Tb0850ULKJEOKu3QnTIc-5" value="-costRequirements: int[2]" style="text;strokeColor=none;fillColor=none;align=left;verticalAlign=top;spacingLeft=4;spacingRight=4;overflow=hidden;rotatable=0;points=[[0,0.5],[1,0.5]];portConstraint=eastwest;" parent="j_IWQZukRgsDgJ5B7h0S-113" vertex="1">
          <mxGeometry y="156" width="250" height="26" as="geometry" />
        </mxCell>
        <mxCell id="j_IWQZukRgsDgJ5B7h0S-142" value="-products: Resource" style="text;strokeColor=none;fillColor=none;align=left;verticalAlign=top;spacingLeft=4;spacingRight=4;overflow=hidden;rotatable=0;points=[[0,0.5],[1,0.5]];portConstraint=eastwest;" parent="j_IWQZukRgsDgJ5B7h0S-113" vertex="1">
          <mxGeometry y="182" width="250" height="26" as="geometry" />
        </mxCell>
        <mxCell id="Tb0850ULKJEOKu3QnTIc-6" value="-costProducts: int[2]" style="text;strokeColor=none;fillColor=none;align=left;verticalAlign=top;spacingLeft=4;spacingRight=4;overflow=hidden;rotatable=0;points=[[0,0.5],[1,0.5]];portConstraint=eastwest;" parent="j_IWQZukRgsDgJ5B7h0S-113" vertex="1">
          <mxGeometry y="208" width="250" height="26" as="geometry" />
        </mxCell>
        <mxCell id="j_IWQZukRgsDgJ5B7h0S-143" value="-victorypoints: int" style="text;strokeColor=none;fillColor=none;align=left;verticalAlign=top;spacingLeft=4;spacingRight=4;overflow=hidden;rotatable=0;points=[[0,0.5],[1,0.5]];portConstraint=eastwest;" parent="j_IWQZukRgsDgJ5B7h0S-113" vertex="1">
          <mxGeometry y="234" width="250" height="26" as="geometry" />
        </mxCell>
        <mxCell id="j_IWQZukRgsDgJ5B7h0S-115" value="" style="line;strokeWidth=1;fillColor=none;align=left;verticalAlign=middle;spacingTop=-1;spacingLeft=3;spacingRight=3;rotatable=0;labelPosition=right;points=[];portConstraint=eastwest;" parent="j_IWQZukRgsDgJ5B7h0S-113" vertex="1">
          <mxGeometry y="260" width="250" height="8" as="geometry" />
        </mxCell>
        <mxCell id="6MP6MsQXi6saDkDlqXph-23" value="+resourceProduction(): ResourceProduction" style="text;strokeColor=none;fillColor=none;align=left;verticalAlign=top;spacingLeft=4;spacingRight=4;overflow=hidden;rotatable=0;points=[[0,0.5],[1,0.5]];portConstraint=eastwest;" parent="j_IWQZukRgsDgJ5B7h0S-113" vertex="1">
          <mxGeometry y="268" width="250" height="26" as="geometry" />
        </mxCell>
        <mxCell id="j_IWQZukRgsDgJ5B7h0S-123" value="«enumeration»&#xa;Type" style="swimlane;fontStyle=1;childLayout=stackLayout;horizontal=1;startSize=40;fillColor=none;horizontalStack=0;resizeParent=1;resizeParentMax=0;resizeLast=0;collapsible=1;marginBottom=0;verticalAlign=top;" parent="1" vertex="1">
          <mxGeometry x="344.5" y="-2224" width="140" height="198" as="geometry" />
        </mxCell>
        <mxCell id="j_IWQZukRgsDgJ5B7h0S-124" value="GREEN" style="text;strokeColor=none;fillColor=none;align=left;verticalAlign=top;spacingLeft=4;spacingRight=4;overflow=hidden;rotatable=0;points=[[0,0.5],[1,0.5]];portConstraint=eastwest;" parent="j_IWQZukRgsDgJ5B7h0S-123" vertex="1">
          <mxGeometry y="40" width="140" height="26" as="geometry" />
        </mxCell>
        <mxCell id="j_IWQZukRgsDgJ5B7h0S-125" value="BLUE" style="text;strokeColor=none;fillColor=none;align=left;verticalAlign=top;spacingLeft=4;spacingRight=4;overflow=hidden;rotatable=0;points=[[0,0.5],[1,0.5]];portConstraint=eastwest;" parent="j_IWQZukRgsDgJ5B7h0S-123" vertex="1">
          <mxGeometry y="66" width="140" height="26" as="geometry" />
        </mxCell>
        <mxCell id="j_IWQZukRgsDgJ5B7h0S-126" value="YELLOW" style="text;strokeColor=none;fillColor=none;align=left;verticalAlign=top;spacingLeft=4;spacingRight=4;overflow=hidden;rotatable=0;points=[[0,0.5],[1,0.5]];portConstraint=eastwest;" parent="j_IWQZukRgsDgJ5B7h0S-123" vertex="1">
          <mxGeometry y="92" width="140" height="28" as="geometry" />
        </mxCell>
        <mxCell id="j_IWQZukRgsDgJ5B7h0S-127" value="PURPLE" style="text;strokeColor=none;fillColor=none;align=left;verticalAlign=top;spacingLeft=4;spacingRight=4;overflow=hidden;rotatable=0;points=[[0,0.5],[1,0.5]];portConstraint=eastwest;" parent="j_IWQZukRgsDgJ5B7h0S-123" vertex="1">
          <mxGeometry y="120" width="140" height="26" as="geometry" />
        </mxCell>
        <mxCell id="a6X4JPlQvPFI4oXuv8M3-1" value="BLACKCROSS2" style="text;strokeColor=none;fillColor=none;align=left;verticalAlign=top;spacingLeft=4;spacingRight=4;overflow=hidden;rotatable=0;points=[[0,0.5],[1,0.5]];portConstraint=eastwest;" parent="j_IWQZukRgsDgJ5B7h0S-123" vertex="1">
          <mxGeometry y="146" width="140" height="26" as="geometry" />
        </mxCell>
        <mxCell id="a6X4JPlQvPFI4oXuv8M3-2" value="BLACKCROSS1" style="text;strokeColor=none;fillColor=none;align=left;verticalAlign=top;spacingLeft=4;spacingRight=4;overflow=hidden;rotatable=0;points=[[0,0.5],[1,0.5]];portConstraint=eastwest;" parent="j_IWQZukRgsDgJ5B7h0S-123" vertex="1">
          <mxGeometry y="172" width="140" height="26" as="geometry" />
        </mxCell>
        <mxCell id="j_IWQZukRgsDgJ5B7h0S-152" value="LeaderCard«abstract»" style="swimlane;fontStyle=1;align=center;verticalAlign=top;childLayout=stackLayout;horizontal=1;startSize=26;horizontalStack=0;resizeParent=1;resizeParentMax=0;resizeLast=0;collapsible=1;marginBottom=0;" parent="1" vertex="1">
          <mxGeometry x="-230" y="-2241" width="220" height="60" as="geometry" />
        </mxCell>
        <mxCell id="j_IWQZukRgsDgJ5B7h0S-156" value="-victorypoints: int" style="text;strokeColor=none;fillColor=none;align=left;verticalAlign=top;spacingLeft=4;spacingRight=4;overflow=hidden;rotatable=0;points=[[0,0.5],[1,0.5]];portConstraint=eastwest;" parent="j_IWQZukRgsDgJ5B7h0S-152" vertex="1">
          <mxGeometry y="26" width="220" height="26" as="geometry" />
        </mxCell>
        <mxCell id="j_IWQZukRgsDgJ5B7h0S-154" value="" style="line;strokeWidth=1;fillColor=none;align=left;verticalAlign=middle;spacingTop=-1;spacingLeft=3;spacingRight=3;rotatable=0;labelPosition=right;points=[];portConstraint=eastwest;" parent="j_IWQZukRgsDgJ5B7h0S-152" vertex="1">
          <mxGeometry y="52" width="220" height="8" as="geometry" />
        </mxCell>
        <mxCell id="j_IWQZukRgsDgJ5B7h0S-167" value="LeaderDeck" style="swimlane;fontStyle=1;align=center;verticalAlign=top;childLayout=stackLayout;horizontal=1;startSize=26;horizontalStack=0;resizeParent=1;resizeParentMax=0;resizeLast=0;collapsible=1;marginBottom=0;" parent="1" vertex="1">
          <mxGeometry x="-485.5" y="-2168" width="180" height="86" as="geometry" />
        </mxCell>
        <mxCell id="j_IWQZukRgsDgJ5B7h0S-168" value="-deck: ArrayList&lt;LeaderCard&gt;" style="text;strokeColor=none;fillColor=none;align=left;verticalAlign=top;spacingLeft=4;spacingRight=4;overflow=hidden;rotatable=0;points=[[0,0.5],[1,0.5]];portConstraint=eastwest;" parent="j_IWQZukRgsDgJ5B7h0S-167" vertex="1">
          <mxGeometry y="26" width="180" height="26" as="geometry" />
        </mxCell>
        <mxCell id="j_IWQZukRgsDgJ5B7h0S-169" value="" style="line;strokeWidth=1;fillColor=none;align=left;verticalAlign=middle;spacingTop=-1;spacingLeft=3;spacingRight=3;rotatable=0;labelPosition=right;points=[];portConstraint=eastwest;" parent="j_IWQZukRgsDgJ5B7h0S-167" vertex="1">
          <mxGeometry y="52" width="180" height="8" as="geometry" />
        </mxCell>
        <mxCell id="-SuyyC4R5xekOw7VtIkT-28" value="+draw(): LeaderCard" style="text;strokeColor=none;fillColor=none;align=left;verticalAlign=top;spacingLeft=4;spacingRight=4;overflow=hidden;rotatable=0;points=[[0,0.5],[1,0.5]];portConstraint=eastwest;" parent="j_IWQZukRgsDgJ5B7h0S-167" vertex="1">
          <mxGeometry y="60" width="180" height="26" as="geometry" />
        </mxCell>
        <mxCell id="j_IWQZukRgsDgJ5B7h0S-171" value="DevelopmentDeck" style="swimlane;fontStyle=1;align=center;verticalAlign=top;childLayout=stackLayout;horizontal=1;startSize=26;horizontalStack=0;resizeParent=1;resizeParentMax=0;resizeLast=0;collapsible=1;marginBottom=0;" parent="1" vertex="1">
          <mxGeometry x="-485.5" y="-2057" width="180" height="216" as="geometry" />
        </mxCell>
        <mxCell id="j_IWQZukRgsDgJ5B7h0S-172" value="-deck: DevelopmentCard" style="text;strokeColor=none;fillColor=none;align=left;verticalAlign=top;spacingLeft=4;spacingRight=4;overflow=hidden;rotatable=0;points=[[0,0.5],[1,0.5]];portConstraint=eastwest;" parent="j_IWQZukRgsDgJ5B7h0S-171" vertex="1">
          <mxGeometry y="26" width="180" height="26" as="geometry" />
        </mxCell>
        <mxCell id="j_IWQZukRgsDgJ5B7h0S-173" value="" style="line;strokeWidth=1;fillColor=none;align=left;verticalAlign=middle;spacingTop=-1;spacingLeft=3;spacingRight=3;rotatable=0;labelPosition=right;points=[];portConstraint=eastwest;" parent="j_IWQZukRgsDgJ5B7h0S-171" vertex="1">
          <mxGeometry y="52" width="180" height="8" as="geometry" />
        </mxCell>
        <mxCell id="-SuyyC4R5xekOw7VtIkT-9" value="+view(): DevelopmentCard" style="text;strokeColor=none;fillColor=none;align=left;verticalAlign=top;spacingLeft=4;spacingRight=4;overflow=hidden;rotatable=0;points=[[0,0.5],[1,0.5]];portConstraint=eastwest;" parent="j_IWQZukRgsDgJ5B7h0S-171" vertex="1">
          <mxGeometry y="60" width="180" height="26" as="geometry" />
        </mxCell>
        <mxCell id="-SuyyC4R5xekOw7VtIkT-10" value="+cardsLeft(): int" style="text;strokeColor=none;fillColor=none;align=left;verticalAlign=top;spacingLeft=4;spacingRight=4;overflow=hidden;rotatable=0;points=[[0,0.5],[1,0.5]];portConstraint=eastwest;" parent="j_IWQZukRgsDgJ5B7h0S-171" vertex="1">
          <mxGeometry y="86" width="180" height="26" as="geometry" />
        </mxCell>
        <mxCell id="j_IWQZukRgsDgJ5B7h0S-174" value="+draw(): DevelopmentCard" style="text;strokeColor=none;fillColor=none;align=left;verticalAlign=top;spacingLeft=4;spacingRight=4;overflow=hidden;rotatable=0;points=[[0,0.5],[1,0.5]];portConstraint=eastwest;" parent="j_IWQZukRgsDgJ5B7h0S-171" vertex="1">
          <mxGeometry y="112" width="180" height="26" as="geometry" />
        </mxCell>
        <mxCell id="zsWBfRV9gmnBReKQ3E4T-59" value="+isFinished(): boolean" style="text;strokeColor=none;fillColor=none;align=left;verticalAlign=top;spacingLeft=4;spacingRight=4;overflow=hidden;rotatable=0;points=[[0,0.5],[1,0.5]];portConstraint=eastwest;" parent="j_IWQZukRgsDgJ5B7h0S-171" vertex="1">
          <mxGeometry y="138" width="180" height="26" as="geometry" />
        </mxCell>
        <mxCell id="a6X4JPlQvPFI4oXuv8M3-35" value="-columnEndend()" style="text;strokeColor=none;fillColor=none;align=left;verticalAlign=top;spacingLeft=4;spacingRight=4;overflow=hidden;rotatable=0;points=[[0,0.5],[1,0.5]];portConstraint=eastwest;" parent="j_IWQZukRgsDgJ5B7h0S-171" vertex="1">
          <mxGeometry y="164" width="180" height="26" as="geometry" />
        </mxCell>
        <mxCell id="a6X4JPlQvPFI4oXuv8M3-36" value="+discard(Type)" style="text;strokeColor=none;fillColor=none;align=left;verticalAlign=top;spacingLeft=4;spacingRight=4;overflow=hidden;rotatable=0;points=[[0,0.5],[1,0.5]];portConstraint=eastwest;" parent="j_IWQZukRgsDgJ5B7h0S-171" vertex="1">
          <mxGeometry y="190" width="180" height="26" as="geometry" />
        </mxCell>
        <mxCell id="j_IWQZukRgsDgJ5B7h0S-188" value="«enumeration»&#xa;Resource" style="swimlane;fontStyle=1;childLayout=stackLayout;horizontal=1;startSize=40;fillColor=none;horizontalStack=0;resizeParent=1;resizeParentMax=0;resizeLast=0;collapsible=1;marginBottom=0;verticalAlign=top;" parent="1" vertex="1">
          <mxGeometry x="340" y="-2459" width="140" height="144" as="geometry" />
        </mxCell>
        <mxCell id="j_IWQZukRgsDgJ5B7h0S-189" value="COIN" style="text;strokeColor=none;fillColor=none;align=left;verticalAlign=top;spacingLeft=4;spacingRight=4;overflow=hidden;rotatable=0;points=[[0,0.5],[1,0.5]];portConstraint=eastwest;" parent="j_IWQZukRgsDgJ5B7h0S-188" vertex="1">
          <mxGeometry y="40" width="140" height="26" as="geometry" />
        </mxCell>
        <mxCell id="j_IWQZukRgsDgJ5B7h0S-190" value="STONE" style="text;strokeColor=none;fillColor=none;align=left;verticalAlign=top;spacingLeft=4;spacingRight=4;overflow=hidden;rotatable=0;points=[[0,0.5],[1,0.5]];portConstraint=eastwest;" parent="j_IWQZukRgsDgJ5B7h0S-188" vertex="1">
          <mxGeometry y="66" width="140" height="26" as="geometry" />
        </mxCell>
        <mxCell id="j_IWQZukRgsDgJ5B7h0S-191" value="SERVANT" style="text;strokeColor=none;fillColor=none;align=left;verticalAlign=top;spacingLeft=4;spacingRight=4;overflow=hidden;rotatable=0;points=[[0,0.5],[1,0.5]];portConstraint=eastwest;" parent="j_IWQZukRgsDgJ5B7h0S-188" vertex="1">
          <mxGeometry y="92" width="140" height="26" as="geometry" />
        </mxCell>
        <mxCell id="j_IWQZukRgsDgJ5B7h0S-192" value="SHIELD" style="text;strokeColor=none;fillColor=none;align=left;verticalAlign=top;spacingLeft=4;spacingRight=4;overflow=hidden;rotatable=0;points=[[0,0.5],[1,0.5]];portConstraint=eastwest;" parent="j_IWQZukRgsDgJ5B7h0S-188" vertex="1">
          <mxGeometry y="118" width="140" height="26" as="geometry" />
        </mxCell>
        <mxCell id="j_IWQZukRgsDgJ5B7h0S-193" value="DiscountLeaderCard" style="swimlane;fontStyle=1;align=center;verticalAlign=top;childLayout=stackLayout;horizontal=1;startSize=26;horizontalStack=0;resizeParent=1;resizeParentMax=0;resizeLast=0;collapsible=1;marginBottom=0;" parent="1" vertex="1">
          <mxGeometry x="54.5" y="-2310" width="200" height="112" as="geometry" />
        </mxCell>
        <mxCell id="j_IWQZukRgsDgJ5B7h0S-160" value="-discount: Resource" style="text;strokeColor=none;fillColor=none;align=left;verticalAlign=top;spacingLeft=4;spacingRight=4;overflow=hidden;rotatable=0;points=[[0,0.5],[1,0.5]];portConstraint=eastwest;" parent="j_IWQZukRgsDgJ5B7h0S-193" vertex="1">
          <mxGeometry y="26" width="200" height="26" as="geometry" />
        </mxCell>
        <mxCell id="j_IWQZukRgsDgJ5B7h0S-251" value="-costOfLeaderCard: Type[2]" style="text;strokeColor=none;fillColor=none;align=left;verticalAlign=top;spacingLeft=4;spacingRight=4;overflow=hidden;rotatable=0;points=[[0,0.5],[1,0.5]];portConstraint=eastwest;" parent="j_IWQZukRgsDgJ5B7h0S-193" vertex="1">
          <mxGeometry y="52" width="200" height="26" as="geometry" />
        </mxCell>
        <mxCell id="j_IWQZukRgsDgJ5B7h0S-195" value="" style="line;strokeWidth=1;fillColor=none;align=left;verticalAlign=middle;spacingTop=-1;spacingLeft=3;spacingRight=3;rotatable=0;labelPosition=right;points=[];portConstraint=eastwest;" parent="j_IWQZukRgsDgJ5B7h0S-193" vertex="1">
          <mxGeometry y="78" width="200" height="8" as="geometry" />
        </mxCell>
        <mxCell id="zsWBfRV9gmnBReKQ3E4T-5" value="+setDiscount(): Resouce" style="text;strokeColor=none;fillColor=none;align=left;verticalAlign=top;spacingLeft=4;spacingRight=4;overflow=hidden;rotatable=0;points=[[0,0.5],[1,0.5]];portConstraint=eastwest;" parent="j_IWQZukRgsDgJ5B7h0S-193" vertex="1">
          <mxGeometry y="86" width="200" height="26" as="geometry" />
        </mxCell>
        <mxCell id="j_IWQZukRgsDgJ5B7h0S-197" value="ExtraStorageLeaderCard" style="swimlane;fontStyle=1;align=center;verticalAlign=top;childLayout=stackLayout;horizontal=1;startSize=26;horizontalStack=0;resizeParent=1;resizeParentMax=0;resizeLast=0;collapsible=1;marginBottom=0;" parent="1" vertex="1">
          <mxGeometry x="-225.5" y="-2478" width="200" height="190" as="geometry" />
        </mxCell>
        <mxCell id="j_IWQZukRgsDgJ5B7h0S-246" value="-costOfLeaderCard: Resource" style="text;strokeColor=none;fillColor=none;align=left;verticalAlign=top;spacingLeft=4;spacingRight=4;overflow=hidden;rotatable=0;points=[[0,0.5],[1,0.5]];portConstraint=eastwest;" parent="j_IWQZukRgsDgJ5B7h0S-197" vertex="1">
          <mxGeometry y="26" width="200" height="26" as="geometry" />
        </mxCell>
        <mxCell id="j_IWQZukRgsDgJ5B7h0S-175" value="-extraStorage: Boolean[2]" style="text;strokeColor=none;fillColor=none;align=left;verticalAlign=top;spacingLeft=4;spacingRight=4;overflow=hidden;rotatable=0;points=[[0,0.5],[1,0.5]];portConstraint=eastwest;" parent="j_IWQZukRgsDgJ5B7h0S-197" vertex="1">
          <mxGeometry y="52" width="200" height="26" as="geometry" />
        </mxCell>
        <mxCell id="j_IWQZukRgsDgJ5B7h0S-236" value="-storageType: Resource" style="text;strokeColor=none;fillColor=none;align=left;verticalAlign=top;spacingLeft=4;spacingRight=4;overflow=hidden;rotatable=0;points=[[0,0.5],[1,0.5]];portConstraint=eastwest;" parent="j_IWQZukRgsDgJ5B7h0S-197" vertex="1">
          <mxGeometry y="78" width="200" height="26" as="geometry" />
        </mxCell>
        <mxCell id="j_IWQZukRgsDgJ5B7h0S-199" value="" style="line;strokeWidth=1;fillColor=none;align=left;verticalAlign=middle;spacingTop=-1;spacingLeft=3;spacingRight=3;rotatable=0;labelPosition=right;points=[];portConstraint=eastwest;" parent="j_IWQZukRgsDgJ5B7h0S-197" vertex="1">
          <mxGeometry y="104" width="200" height="8" as="geometry" />
        </mxCell>
        <mxCell id="zsWBfRV9gmnBReKQ3E4T-1" value="+occupiedResources(): int" style="text;strokeColor=none;fillColor=none;align=left;verticalAlign=top;spacingLeft=4;spacingRight=4;overflow=hidden;rotatable=0;points=[[0,0.5],[1,0.5]];portConstraint=eastwest;" parent="j_IWQZukRgsDgJ5B7h0S-197" vertex="1">
          <mxGeometry y="112" width="200" height="26" as="geometry" />
        </mxCell>
        <mxCell id="zsWBfRV9gmnBReKQ3E4T-2" value="+addResource()" style="text;strokeColor=none;fillColor=none;align=left;verticalAlign=top;spacingLeft=4;spacingRight=4;overflow=hidden;rotatable=0;points=[[0,0.5],[1,0.5]];portConstraint=eastwest;" parent="j_IWQZukRgsDgJ5B7h0S-197" vertex="1">
          <mxGeometry y="138" width="200" height="26" as="geometry" />
        </mxCell>
        <mxCell id="zsWBfRV9gmnBReKQ3E4T-3" value="+remouveResouce()" style="text;strokeColor=none;fillColor=none;align=left;verticalAlign=top;spacingLeft=4;spacingRight=4;overflow=hidden;rotatable=0;points=[[0,0.5],[1,0.5]];portConstraint=eastwest;" parent="j_IWQZukRgsDgJ5B7h0S-197" vertex="1">
          <mxGeometry y="164" width="200" height="26" as="geometry" />
        </mxCell>
        <mxCell id="j_IWQZukRgsDgJ5B7h0S-206" value="WhiteMarbleLeaderCard" style="swimlane;fontStyle=1;align=center;verticalAlign=top;childLayout=stackLayout;horizontal=1;startSize=26;horizontalStack=0;resizeParent=1;resizeParentMax=0;resizeLast=0;collapsible=1;marginBottom=0;" parent="1" vertex="1">
          <mxGeometry x="54.5" y="-2190" width="200" height="138" as="geometry" />
        </mxCell>
        <mxCell id="j_IWQZukRgsDgJ5B7h0S-244" value="-costOfLeaderCard: Type[3]" style="text;strokeColor=none;fillColor=none;align=left;verticalAlign=top;spacingLeft=4;spacingRight=4;overflow=hidden;rotatable=0;points=[[0,0.5],[1,0.5]];portConstraint=eastwest;" parent="j_IWQZukRgsDgJ5B7h0S-206" vertex="1">
          <mxGeometry y="26" width="200" height="26" as="geometry" />
        </mxCell>
        <mxCell id="j_IWQZukRgsDgJ5B7h0S-176" value="-whitemarble: Marble" style="text;strokeColor=none;fillColor=none;align=left;verticalAlign=top;spacingLeft=4;spacingRight=4;overflow=hidden;rotatable=0;points=[[0,0.5],[1,0.5]];portConstraint=eastwest;" parent="j_IWQZukRgsDgJ5B7h0S-206" vertex="1">
          <mxGeometry y="52" width="200" height="26" as="geometry" />
        </mxCell>
        <mxCell id="j_IWQZukRgsDgJ5B7h0S-208" value="" style="line;strokeWidth=1;fillColor=none;align=left;verticalAlign=middle;spacingTop=-1;spacingLeft=3;spacingRight=3;rotatable=0;labelPosition=right;points=[];portConstraint=eastwest;" parent="j_IWQZukRgsDgJ5B7h0S-206" vertex="1">
          <mxGeometry y="78" width="200" height="8" as="geometry" />
        </mxCell>
        <mxCell id="j_IWQZukRgsDgJ5B7h0S-209" value="+getCostOfLeaderCard" style="text;strokeColor=none;fillColor=none;align=left;verticalAlign=top;spacingLeft=4;spacingRight=4;overflow=hidden;rotatable=0;points=[[0,0.5],[1,0.5]];portConstraint=eastwest;" parent="j_IWQZukRgsDgJ5B7h0S-206" vertex="1">
          <mxGeometry y="86" width="200" height="26" as="geometry" />
        </mxCell>
        <mxCell id="zsWBfRV9gmnBReKQ3E4T-7" value="+getWhiteMarble(): Marble" style="text;strokeColor=none;fillColor=none;align=left;verticalAlign=top;spacingLeft=4;spacingRight=4;overflow=hidden;rotatable=0;points=[[0,0.5],[1,0.5]];portConstraint=eastwest;" parent="j_IWQZukRgsDgJ5B7h0S-206" vertex="1">
          <mxGeometry y="112" width="200" height="26" as="geometry" />
        </mxCell>
        <mxCell id="j_IWQZukRgsDgJ5B7h0S-211" value="ProductionPowerLeaderCard" style="swimlane;fontStyle=1;align=center;verticalAlign=top;childLayout=stackLayout;horizontal=1;startSize=26;horizontalStack=0;resizeParent=1;resizeParentMax=0;resizeLast=0;collapsible=1;marginBottom=0;" parent="1" vertex="1">
          <mxGeometry x="54.5" y="-2040" width="245.5" height="112" as="geometry" />
        </mxCell>
        <mxCell id="j_IWQZukRgsDgJ5B7h0S-249" value="-costOfLeaderCard: Type" style="text;strokeColor=none;fillColor=none;align=left;verticalAlign=top;spacingLeft=4;spacingRight=4;overflow=hidden;rotatable=0;points=[[0,0.5],[1,0.5]];portConstraint=eastwest;" parent="j_IWQZukRgsDgJ5B7h0S-211" vertex="1">
          <mxGeometry y="26" width="245.5" height="26" as="geometry" />
        </mxCell>
        <mxCell id="j_IWQZukRgsDgJ5B7h0S-177" value="-requirement: Resource" style="text;strokeColor=none;fillColor=none;align=left;verticalAlign=top;spacingLeft=4;spacingRight=4;overflow=hidden;rotatable=0;points=[[0,0.5],[1,0.5]];portConstraint=eastwest;" parent="j_IWQZukRgsDgJ5B7h0S-211" vertex="1">
          <mxGeometry y="52" width="245.5" height="26" as="geometry" />
        </mxCell>
        <mxCell id="j_IWQZukRgsDgJ5B7h0S-213" value="" style="line;strokeWidth=1;fillColor=none;align=left;verticalAlign=middle;spacingTop=-1;spacingLeft=3;spacingRight=3;rotatable=0;labelPosition=right;points=[];portConstraint=eastwest;" parent="j_IWQZukRgsDgJ5B7h0S-211" vertex="1">
          <mxGeometry y="78" width="245.5" height="8" as="geometry" />
        </mxCell>
        <mxCell id="6MP6MsQXi6saDkDlqXph-15" value="+resourceProduction(): ResourceProduction" style="text;strokeColor=none;fillColor=none;align=left;verticalAlign=top;spacingLeft=4;spacingRight=4;overflow=hidden;rotatable=0;points=[[0,0.5],[1,0.5]];portConstraint=eastwest;" parent="j_IWQZukRgsDgJ5B7h0S-211" vertex="1">
          <mxGeometry y="86" width="245.5" height="26" as="geometry" />
        </mxCell>
        <mxCell id="j_IWQZukRgsDgJ5B7h0S-221" value="" style="endArrow=diamondThin;endFill=1;endSize=24;html=1;entryX=1;entryY=0.5;entryDx=0;entryDy=0;exitX=0.25;exitY=0;exitDx=0;exitDy=0;" parent="1" source="e2Iy07mbepDIcA7AyD_o-29" target="j_IWQZukRgsDgJ5B7h0S-168" edge="1">
          <mxGeometry width="160" relative="1" as="geometry">
            <mxPoint x="-1130" y="-84" as="sourcePoint" />
            <mxPoint x="-970" y="-84" as="targetPoint" />
            <Array as="points">
              <mxPoint x="-200" y="-2050" />
              <mxPoint x="-260" y="-2050" />
              <mxPoint x="-260" y="-2129" />
            </Array>
          </mxGeometry>
        </mxCell>
        <mxCell id="j_IWQZukRgsDgJ5B7h0S-222" value="" style="endArrow=diamondThin;endFill=1;endSize=24;html=1;entryX=1;entryY=0.5;entryDx=0;entryDy=0;exitX=0;exitY=0.38;exitDx=0;exitDy=0;exitPerimeter=0;" parent="1" source="e2Iy07mbepDIcA7AyD_o-29" target="j_IWQZukRgsDgJ5B7h0S-172" edge="1">
          <mxGeometry width="160" relative="1" as="geometry">
            <mxPoint x="-1120" y="176" as="sourcePoint" />
            <mxPoint x="-960" y="176" as="targetPoint" />
            <Array as="points">
              <mxPoint x="-250" y="-2018" />
            </Array>
          </mxGeometry>
        </mxCell>
        <mxCell id="j_IWQZukRgsDgJ5B7h0S-225" value="Extends" style="endArrow=block;endSize=16;endFill=0;html=1;exitX=-0.001;exitY=0.574;exitDx=0;exitDy=0;entryX=0.79;entryY=-0.017;entryDx=0;entryDy=0;entryPerimeter=0;exitPerimeter=0;" parent="1" source="j_IWQZukRgsDgJ5B7h0S-160" target="j_IWQZukRgsDgJ5B7h0S-152" edge="1">
          <mxGeometry width="160" relative="1" as="geometry">
            <mxPoint x="-850" y="-144" as="sourcePoint" />
            <mxPoint x="-563.6714975845412" y="-230" as="targetPoint" />
            <Array as="points">
              <mxPoint x="-56" y="-2270" />
            </Array>
          </mxGeometry>
        </mxCell>
        <mxCell id="j_IWQZukRgsDgJ5B7h0S-226" value="Extends" style="endArrow=block;endSize=16;endFill=0;html=1;" parent="1" source="j_IWQZukRgsDgJ5B7h0S-197" target="j_IWQZukRgsDgJ5B7h0S-152" edge="1">
          <mxGeometry width="160" relative="1" as="geometry">
            <mxPoint x="-640" y="-124" as="sourcePoint" />
            <mxPoint x="-530.5999999999999" y="-230" as="targetPoint" />
          </mxGeometry>
        </mxCell>
        <mxCell id="j_IWQZukRgsDgJ5B7h0S-228" value="Extends" style="endArrow=block;endSize=16;endFill=0;html=1;exitX=-0.001;exitY=0.531;exitDx=0;exitDy=0;exitPerimeter=0;" parent="1" source="j_IWQZukRgsDgJ5B7h0S-249" edge="1">
          <mxGeometry width="160" relative="1" as="geometry">
            <mxPoint x="-660" y="-134" as="sourcePoint" />
            <mxPoint x="-60" y="-2181" as="targetPoint" />
            <Array as="points">
              <mxPoint x="-60" y="-2000" />
            </Array>
          </mxGeometry>
        </mxCell>
        <mxCell id="j_IWQZukRgsDgJ5B7h0S-238" value="" style="endArrow=none;html=1;exitX=1;exitY=0.5;exitDx=0;exitDy=0;" parent="1" source="j_IWQZukRgsDgJ5B7h0S-236" target="j_IWQZukRgsDgJ5B7h0S-188" edge="1">
          <mxGeometry width="50" height="50" relative="1" as="geometry">
            <mxPoint x="-320" y="-374" as="sourcePoint" />
            <mxPoint x="-270" y="-424" as="targetPoint" />
          </mxGeometry>
        </mxCell>
        <mxCell id="j_IWQZukRgsDgJ5B7h0S-245" value="Extends" style="endArrow=block;endSize=16;endFill=0;html=1;" parent="1" source="j_IWQZukRgsDgJ5B7h0S-206" edge="1">
          <mxGeometry width="160" relative="1" as="geometry">
            <mxPoint x="-660" y="-214" as="sourcePoint" />
            <mxPoint x="-28" y="-2181" as="targetPoint" />
            <Array as="points">
              <mxPoint x="-28" y="-2121" />
            </Array>
          </mxGeometry>
        </mxCell>
        <mxCell id="j_IWQZukRgsDgJ5B7h0S-257" value="" style="endArrow=none;html=1;exitX=1;exitY=0.5;exitDx=0;exitDy=0;entryX=0.004;entryY=0.89;entryDx=0;entryDy=0;entryPerimeter=0;" parent="1" source="j_IWQZukRgsDgJ5B7h0S-251" target="j_IWQZukRgsDgJ5B7h0S-124" edge="1">
          <mxGeometry width="50" height="50" relative="1" as="geometry">
            <mxPoint x="-210" y="146" as="sourcePoint" />
            <mxPoint x="-160" y="96" as="targetPoint" />
            <Array as="points">
              <mxPoint x="314.5" y="-2245" />
              <mxPoint x="314.5" y="-2161" />
            </Array>
          </mxGeometry>
        </mxCell>
        <mxCell id="j_IWQZukRgsDgJ5B7h0S-258" value="" style="endArrow=none;html=1;exitX=1.001;exitY=0.179;exitDx=0;exitDy=0;exitPerimeter=0;entryX=0.002;entryY=0.212;entryDx=0;entryDy=0;entryPerimeter=0;" parent="1" source="j_IWQZukRgsDgJ5B7h0S-209" target="j_IWQZukRgsDgJ5B7h0S-127" edge="1">
          <mxGeometry width="50" height="50" relative="1" as="geometry">
            <mxPoint x="-800" y="76" as="sourcePoint" />
            <mxPoint x="261.8357664233581" y="-1950" as="targetPoint" />
          </mxGeometry>
        </mxCell>
        <mxCell id="j_IWQZukRgsDgJ5B7h0S-274" value="Market" style="swimlane;fontStyle=1;align=center;verticalAlign=top;childLayout=stackLayout;horizontal=1;startSize=26;horizontalStack=0;resizeParent=1;resizeParentMax=0;resizeLast=0;collapsible=1;marginBottom=0;" parent="1" vertex="1">
          <mxGeometry x="-885.5" y="-1828" width="180" height="242" as="geometry" />
        </mxCell>
        <mxCell id="j_IWQZukRgsDgJ5B7h0S-275" value="-marketTray: Marble[3][4]" style="text;strokeColor=none;fillColor=none;align=left;verticalAlign=top;spacingLeft=4;spacingRight=4;overflow=hidden;rotatable=0;points=[[0,0.5],[1,0.5]];portConstraint=eastwest;" parent="j_IWQZukRgsDgJ5B7h0S-274" vertex="1">
          <mxGeometry y="26" width="180" height="26" as="geometry" />
        </mxCell>
        <mxCell id="j_IWQZukRgsDgJ5B7h0S-278" value="-extraMarble: Marble" style="text;strokeColor=none;fillColor=none;align=left;verticalAlign=top;spacingLeft=4;spacingRight=4;overflow=hidden;rotatable=0;points=[[0,0.5],[1,0.5]];portConstraint=eastwest;" parent="j_IWQZukRgsDgJ5B7h0S-274" vertex="1">
          <mxGeometry y="52" width="180" height="26" as="geometry" />
        </mxCell>
        <mxCell id="j_IWQZukRgsDgJ5B7h0S-276" value="" style="line;strokeWidth=1;fillColor=none;align=left;verticalAlign=middle;spacingTop=-1;spacingLeft=3;spacingRight=3;rotatable=0;labelPosition=right;points=[];portConstraint=eastwest;" parent="j_IWQZukRgsDgJ5B7h0S-274" vertex="1">
          <mxGeometry y="78" width="180" height="8" as="geometry" />
        </mxCell>
        <mxCell id="zsWBfRV9gmnBReKQ3E4T-46" value="+chooseRow(int): Marble[4]" style="text;strokeColor=none;fillColor=none;align=left;verticalAlign=top;spacingLeft=4;spacingRight=4;overflow=hidden;rotatable=0;points=[[0,0.5],[1,0.5]];portConstraint=eastwest;" parent="j_IWQZukRgsDgJ5B7h0S-274" vertex="1">
          <mxGeometry y="86" width="180" height="26" as="geometry" />
        </mxCell>
        <mxCell id="zsWBfRV9gmnBReKQ3E4T-47" value="+chooseColumn(int): Marble[3]" style="text;strokeColor=none;fillColor=none;align=left;verticalAlign=top;spacingLeft=4;spacingRight=4;overflow=hidden;rotatable=0;points=[[0,0.5],[1,0.5]];portConstraint=eastwest;" parent="j_IWQZukRgsDgJ5B7h0S-274" vertex="1">
          <mxGeometry y="112" width="180" height="26" as="geometry" />
        </mxCell>
        <mxCell id="I1I3rjsC-SGCzknYV9vt-3" value="-putMarbles(ArrayList&lt;Marble&gt;)" style="text;strokeColor=none;fillColor=none;align=left;verticalAlign=top;spacingLeft=4;spacingRight=4;overflow=hidden;rotatable=0;points=[[0,0.5],[1,0.5]];portConstraint=eastwest;" parent="j_IWQZukRgsDgJ5B7h0S-274" vertex="1">
          <mxGeometry y="138" width="180" height="26" as="geometry" />
        </mxCell>
        <mxCell id="I1I3rjsC-SGCzknYV9vt-4" value="-listToMarket(ArrayList&lt;Marble&gt;)" style="text;strokeColor=none;fillColor=none;align=left;verticalAlign=top;spacingLeft=4;spacingRight=4;overflow=hidden;rotatable=0;points=[[0,0.5],[1,0.5]];portConstraint=eastwest;" parent="j_IWQZukRgsDgJ5B7h0S-274" vertex="1">
          <mxGeometry y="164" width="180" height="26" as="geometry" />
        </mxCell>
        <mxCell id="I1I3rjsC-SGCzknYV9vt-6" value="-shiftColumn(int)" style="text;strokeColor=none;fillColor=none;align=left;verticalAlign=top;spacingLeft=4;spacingRight=4;overflow=hidden;rotatable=0;points=[[0,0.5],[1,0.5]];portConstraint=eastwest;" parent="j_IWQZukRgsDgJ5B7h0S-274" vertex="1">
          <mxGeometry y="190" width="180" height="26" as="geometry" />
        </mxCell>
        <mxCell id="I1I3rjsC-SGCzknYV9vt-5" value="-shiftRow(int)" style="text;strokeColor=none;fillColor=none;align=left;verticalAlign=top;spacingLeft=4;spacingRight=4;overflow=hidden;rotatable=0;points=[[0,0.5],[1,0.5]];portConstraint=eastwest;" parent="j_IWQZukRgsDgJ5B7h0S-274" vertex="1">
          <mxGeometry y="216" width="180" height="26" as="geometry" />
        </mxCell>
        <mxCell id="j_IWQZukRgsDgJ5B7h0S-279" value="Table" style="swimlane;fontStyle=1;align=center;verticalAlign=top;childLayout=stackLayout;horizontal=1;startSize=26;horizontalStack=0;resizeParent=1;resizeParentMax=0;resizeLast=0;collapsible=1;marginBottom=0;" parent="1" vertex="1">
          <mxGeometry x="-920.5" y="-2040" width="250" height="112" as="geometry" />
        </mxCell>
        <mxCell id="j_IWQZukRgsDgJ5B7h0S-290" value="-leaderDeck: LeaderDeck" style="text;strokeColor=none;fillColor=none;align=left;verticalAlign=top;spacingLeft=4;spacingRight=4;overflow=hidden;rotatable=0;points=[[0,0.5],[1,0.5]];portConstraint=eastwest;" parent="j_IWQZukRgsDgJ5B7h0S-279" vertex="1">
          <mxGeometry y="26" width="250" height="26" as="geometry" />
        </mxCell>
        <mxCell id="j_IWQZukRgsDgJ5B7h0S-291" value="-developmentDeck: DevelopmentDeck[3][4]" style="text;strokeColor=none;fillColor=none;align=left;verticalAlign=top;spacingLeft=4;spacingRight=4;overflow=hidden;rotatable=0;points=[[0,0.5],[1,0.5]];portConstraint=eastwest;" parent="j_IWQZukRgsDgJ5B7h0S-279" vertex="1">
          <mxGeometry y="52" width="250" height="26" as="geometry" />
        </mxCell>
        <mxCell id="j_IWQZukRgsDgJ5B7h0S-283" value="-market: Market" style="text;strokeColor=none;fillColor=none;align=left;verticalAlign=top;spacingLeft=4;spacingRight=4;overflow=hidden;rotatable=0;points=[[0,0.5],[1,0.5]];portConstraint=eastwest;" parent="j_IWQZukRgsDgJ5B7h0S-279" vertex="1">
          <mxGeometry y="78" width="250" height="26" as="geometry" />
        </mxCell>
        <mxCell id="j_IWQZukRgsDgJ5B7h0S-281" value="" style="line;strokeWidth=1;fillColor=none;align=left;verticalAlign=middle;spacingTop=-1;spacingLeft=3;spacingRight=3;rotatable=0;labelPosition=right;points=[];portConstraint=eastwest;" parent="j_IWQZukRgsDgJ5B7h0S-279" vertex="1">
          <mxGeometry y="104" width="250" height="8" as="geometry" />
        </mxCell>
        <mxCell id="j_IWQZukRgsDgJ5B7h0S-284" value="Player" style="swimlane;fontStyle=1;align=center;verticalAlign=top;childLayout=stackLayout;horizontal=1;startSize=26;horizontalStack=0;resizeParent=1;resizeParentMax=0;resizeLast=0;collapsible=1;marginBottom=0;" parent="1" vertex="1">
          <mxGeometry x="-1940" y="-2004" width="330" height="788" as="geometry" />
        </mxCell>
        <mxCell id="zsWBfRV9gmnBReKQ3E4T-29" value="-nickname: String" style="text;strokeColor=none;fillColor=none;align=left;verticalAlign=top;spacingLeft=4;spacingRight=4;overflow=hidden;rotatable=0;points=[[0,0.5],[1,0.5]];portConstraint=eastwest;" parent="j_IWQZukRgsDgJ5B7h0S-284" vertex="1">
          <mxGeometry y="26" width="330" height="26" as="geometry" />
        </mxCell>
        <mxCell id="j_IWQZukRgsDgJ5B7h0S-285" value="-personalBoard: PersonalBoard" style="text;strokeColor=none;fillColor=none;align=left;verticalAlign=top;spacingLeft=4;spacingRight=4;overflow=hidden;rotatable=0;points=[[0,0.5],[1,0.5]];portConstraint=eastwest;" parent="j_IWQZukRgsDgJ5B7h0S-284" vertex="1">
          <mxGeometry y="52" width="330" height="26" as="geometry" />
        </mxCell>
        <mxCell id="j_IWQZukRgsDgJ5B7h0S-288" value="-cardsInHand: ArrayList&lt;LeaderCard&gt;" style="text;strokeColor=none;fillColor=none;align=left;verticalAlign=top;spacingLeft=4;spacingRight=4;overflow=hidden;rotatable=0;points=[[0,0.5],[1,0.5]];portConstraint=eastwest;" parent="j_IWQZukRgsDgJ5B7h0S-284" vertex="1">
          <mxGeometry y="78" width="330" height="26" as="geometry" />
        </mxCell>
        <mxCell id="zsWBfRV9gmnBReKQ3E4T-6" value="-cardsOnTable: ArrayList&lt;LeaderCard&gt;" style="text;strokeColor=none;fillColor=none;align=left;verticalAlign=top;spacingLeft=4;spacingRight=4;overflow=hidden;rotatable=0;points=[[0,0.5],[1,0.5]];portConstraint=eastwest;" parent="j_IWQZukRgsDgJ5B7h0S-284" vertex="1">
          <mxGeometry y="104" width="330" height="26" as="geometry" />
        </mxCell>
        <mxCell id="e2Iy07mbepDIcA7AyD_o-33" value="-activeDiscount: Resource" style="text;strokeColor=none;fillColor=none;align=left;verticalAlign=top;spacingLeft=4;spacingRight=4;overflow=hidden;rotatable=0;points=[[0,0.5],[1,0.5]];portConstraint=eastwest;" parent="j_IWQZukRgsDgJ5B7h0S-284" vertex="1">
          <mxGeometry y="130" width="330" height="26" as="geometry" />
        </mxCell>
        <mxCell id="j_IWQZukRgsDgJ5B7h0S-289" value="-inkwell: boolean" style="text;strokeColor=none;fillColor=none;align=left;verticalAlign=top;spacingLeft=4;spacingRight=4;overflow=hidden;rotatable=0;points=[[0,0.5],[1,0.5]];portConstraint=eastwest;" parent="j_IWQZukRgsDgJ5B7h0S-284" vertex="1">
          <mxGeometry y="156" width="330" height="26" as="geometry" />
        </mxCell>
        <mxCell id="bMicbcqdzmjaKOhH1kFO-9" value="-marbleFromTheMarket: List&lt;Marble&gt;" style="text;strokeColor=none;fillColor=none;align=left;verticalAlign=top;spacingLeft=4;spacingRight=4;overflow=hidden;rotatable=0;points=[[0,0.5],[1,0.5]];portConstraint=eastwest;" parent="j_IWQZukRgsDgJ5B7h0S-284" vertex="1">
          <mxGeometry y="182" width="330" height="26" as="geometry" />
        </mxCell>
        <mxCell id="3B-92UQkA-Mj99n0AdDV-8" value="-selectedProduction: ArrayList&lt;Production&gt;" style="text;strokeColor=none;fillColor=none;align=left;verticalAlign=top;spacingLeft=4;spacingRight=4;overflow=hidden;rotatable=0;points=[[0,0.5],[1,0.5]];portConstraint=eastwest;" parent="j_IWQZukRgsDgJ5B7h0S-284" vertex="1">
          <mxGeometry y="208" width="330" height="26" as="geometry" />
        </mxCell>
        <mxCell id="3B-92UQkA-Mj99n0AdDV-9" value="-selectedDefaultProductionPower: boolean" style="text;strokeColor=none;fillColor=none;align=left;verticalAlign=top;spacingLeft=4;spacingRight=4;overflow=hidden;rotatable=0;points=[[0,0.5],[1,0.5]];portConstraint=eastwest;" parent="j_IWQZukRgsDgJ5B7h0S-284" vertex="1">
          <mxGeometry y="234" width="330" height="26" as="geometry" />
        </mxCell>
        <mxCell id="3B-92UQkA-Mj99n0AdDV-10" value="-payingResources: ArrayList&lt;Resource&gt;" style="text;strokeColor=none;fillColor=none;align=left;verticalAlign=top;spacingLeft=4;spacingRight=4;overflow=hidden;rotatable=0;points=[[0,0.5],[1,0.5]];portConstraint=eastwest;" parent="j_IWQZukRgsDgJ5B7h0S-284" vertex="1">
          <mxGeometry y="260" width="330" height="26" as="geometry" />
        </mxCell>
        <mxCell id="3B-92UQkA-Mj99n0AdDV-11" value="-obtainedGeneric: int" style="text;strokeColor=none;fillColor=none;align=left;verticalAlign=top;spacingLeft=4;spacingRight=4;overflow=hidden;rotatable=0;points=[[0,0.5],[1,0.5]];portConstraint=eastwest;" parent="j_IWQZukRgsDgJ5B7h0S-284" vertex="1">
          <mxGeometry y="286" width="330" height="26" as="geometry" />
        </mxCell>
        <mxCell id="j_IWQZukRgsDgJ5B7h0S-286" value="" style="line;strokeWidth=1;fillColor=none;align=left;verticalAlign=middle;spacingTop=-1;spacingLeft=3;spacingRight=3;rotatable=0;labelPosition=right;points=[];portConstraint=eastwest;" parent="j_IWQZukRgsDgJ5B7h0S-284" vertex="1">
          <mxGeometry y="312" width="330" height="8" as="geometry" />
        </mxCell>
        <mxCell id="3B-92UQkA-Mj99n0AdDV-12" value="+setInkwell()" style="text;strokeColor=none;fillColor=none;align=left;verticalAlign=top;spacingLeft=4;spacingRight=4;overflow=hidden;rotatable=0;points=[[0,0.5],[1,0.5]];portConstraint=eastwest;" parent="j_IWQZukRgsDgJ5B7h0S-284" vertex="1">
          <mxGeometry y="320" width="330" height="26" as="geometry" />
        </mxCell>
        <mxCell id="3B-92UQkA-Mj99n0AdDV-13" value="+isInkwell(): boolean" style="text;strokeColor=none;fillColor=none;align=left;verticalAlign=top;spacingLeft=4;spacingRight=4;overflow=hidden;rotatable=0;points=[[0,0.5],[1,0.5]];portConstraint=eastwest;" parent="j_IWQZukRgsDgJ5B7h0S-284" vertex="1">
          <mxGeometry y="346" width="330" height="26" as="geometry" />
        </mxCell>
        <mxCell id="zsWBfRV9gmnBReKQ3E4T-48" value="+discardLeaderCard(LeaderCard)" style="text;strokeColor=none;fillColor=none;align=left;verticalAlign=top;spacingLeft=4;spacingRight=4;overflow=hidden;rotatable=0;points=[[0,0.5],[1,0.5]];portConstraint=eastwest;" parent="j_IWQZukRgsDgJ5B7h0S-284" vertex="1">
          <mxGeometry y="372" width="330" height="26" as="geometry" />
        </mxCell>
        <mxCell id="zsWBfRV9gmnBReKQ3E4T-49" value="+playLeaderCard(LeaderCard)" style="text;strokeColor=none;fillColor=none;align=left;verticalAlign=top;spacingLeft=4;spacingRight=4;overflow=hidden;rotatable=0;points=[[0,0.5],[1,0.5]];portConstraint=eastwest;" parent="j_IWQZukRgsDgJ5B7h0S-284" vertex="1">
          <mxGeometry y="398" width="330" height="26" as="geometry" />
        </mxCell>
        <mxCell id="zsWBfRV9gmnBReKQ3E4T-50" value="+takeResoucesFromTheMarket(RowColumn, int)" style="text;strokeColor=none;fillColor=none;align=left;verticalAlign=top;spacingLeft=4;spacingRight=4;overflow=hidden;rotatable=0;points=[[0,0.5],[1,0.5]];portConstraint=eastwest;" parent="j_IWQZukRgsDgJ5B7h0S-284" vertex="1">
          <mxGeometry y="424" width="330" height="26" as="geometry" />
        </mxCell>
        <mxCell id="3B-92UQkA-Mj99n0AdDV-14" value="+addResource(LeaderWarehouse, int)" style="text;strokeColor=none;fillColor=none;align=left;verticalAlign=top;spacingLeft=4;spacingRight=4;overflow=hidden;rotatable=0;points=[[0,0.5],[1,0.5]];portConstraint=eastwest;" parent="j_IWQZukRgsDgJ5B7h0S-284" vertex="1">
          <mxGeometry y="450" width="330" height="26" as="geometry" />
        </mxCell>
        <mxCell id="3B-92UQkA-Mj99n0AdDV-15" value="+changeWhiteMarbleWith(int)" style="text;strokeColor=none;fillColor=none;align=left;verticalAlign=top;spacingLeft=4;spacingRight=4;overflow=hidden;rotatable=0;points=[[0,0.5],[1,0.5]];portConstraint=eastwest;" parent="j_IWQZukRgsDgJ5B7h0S-284" vertex="1">
          <mxGeometry y="476" width="330" height="26" as="geometry" />
        </mxCell>
        <mxCell id="3B-92UQkA-Mj99n0AdDV-16" value="+selectProductionDevelopmentCard(int)" style="text;strokeColor=none;fillColor=none;align=left;verticalAlign=top;spacingLeft=4;spacingRight=4;overflow=hidden;rotatable=0;points=[[0,0.5],[1,0.5]];portConstraint=eastwest;" parent="j_IWQZukRgsDgJ5B7h0S-284" vertex="1">
          <mxGeometry y="502" width="330" height="26" as="geometry" />
        </mxCell>
        <mxCell id="3B-92UQkA-Mj99n0AdDV-17" value="+selectProductionPowerLeaderCard(int)" style="text;strokeColor=none;fillColor=none;align=left;verticalAlign=top;spacingLeft=4;spacingRight=4;overflow=hidden;rotatable=0;points=[[0,0.5],[1,0.5]];portConstraint=eastwest;" parent="j_IWQZukRgsDgJ5B7h0S-284" vertex="1">
          <mxGeometry y="528" width="330" height="26" as="geometry" />
        </mxCell>
        <mxCell id="3B-92UQkA-Mj99n0AdDV-18" value="+selectDefaultProductionPower()" style="text;strokeColor=none;fillColor=none;align=left;verticalAlign=top;spacingLeft=4;spacingRight=4;overflow=hidden;rotatable=0;points=[[0,0.5],[1,0.5]];portConstraint=eastwest;" parent="j_IWQZukRgsDgJ5B7h0S-284" vertex="1">
          <mxGeometry y="554" width="330" height="26" as="geometry" />
        </mxCell>
        <mxCell id="3B-92UQkA-Mj99n0AdDV-19" value="+startPayment()" style="text;strokeColor=none;fillColor=none;align=left;verticalAlign=top;spacingLeft=4;spacingRight=4;overflow=hidden;rotatable=0;points=[[0,0.5],[1,0.5]];portConstraint=eastwest;" parent="j_IWQZukRgsDgJ5B7h0S-284" vertex="1">
          <mxGeometry y="580" width="330" height="26" as="geometry" />
        </mxCell>
        <mxCell id="3B-92UQkA-Mj99n0AdDV-20" value="+payWithStrongBox(Resource)" style="text;strokeColor=none;fillColor=none;align=left;verticalAlign=top;spacingLeft=4;spacingRight=4;overflow=hidden;rotatable=0;points=[[0,0.5],[1,0.5]];portConstraint=eastwest;" parent="j_IWQZukRgsDgJ5B7h0S-284" vertex="1">
          <mxGeometry y="606" width="330" height="26" as="geometry" />
        </mxCell>
        <mxCell id="3B-92UQkA-Mj99n0AdDV-21" value="+payWithWarehouseDepots(int)" style="text;strokeColor=none;fillColor=none;align=left;verticalAlign=top;spacingLeft=4;spacingRight=4;overflow=hidden;rotatable=0;points=[[0,0.5],[1,0.5]];portConstraint=eastwest;" parent="j_IWQZukRgsDgJ5B7h0S-284" vertex="1">
          <mxGeometry y="632" width="330" height="26" as="geometry" />
        </mxCell>
        <mxCell id="3B-92UQkA-Mj99n0AdDV-22" value="+payWithExtraStorageLeaderCard(int)" style="text;strokeColor=none;fillColor=none;align=left;verticalAlign=top;spacingLeft=4;spacingRight=4;overflow=hidden;rotatable=0;points=[[0,0.5],[1,0.5]];portConstraint=eastwest;" parent="j_IWQZukRgsDgJ5B7h0S-284" vertex="1">
          <mxGeometry y="658" width="330" height="26" as="geometry" />
        </mxCell>
        <mxCell id="3B-92UQkA-Mj99n0AdDV-23" value="+obtainGenericResource(Resource)" style="text;strokeColor=none;fillColor=none;align=left;verticalAlign=top;spacingLeft=4;spacingRight=4;overflow=hidden;rotatable=0;points=[[0,0.5],[1,0.5]];portConstraint=eastwest;" parent="j_IWQZukRgsDgJ5B7h0S-284" vertex="1">
          <mxGeometry y="684" width="330" height="26" as="geometry" />
        </mxCell>
        <mxCell id="3B-92UQkA-Mj99n0AdDV-25" value="+buyDevelopmentCard(DevelopmentDeck)" style="text;strokeColor=none;fillColor=none;align=left;verticalAlign=top;spacingLeft=4;spacingRight=4;overflow=hidden;rotatable=0;points=[[0,0.5],[1,0.5]];portConstraint=eastwest;" parent="j_IWQZukRgsDgJ5B7h0S-284" vertex="1">
          <mxGeometry y="710" width="330" height="26" as="geometry" />
        </mxCell>
        <mxCell id="zsWBfRV9gmnBReKQ3E4T-56" value="+activateProductionCard()" style="text;strokeColor=none;fillColor=none;align=left;verticalAlign=top;spacingLeft=4;spacingRight=4;overflow=hidden;rotatable=0;points=[[0,0.5],[1,0.5]];portConstraint=eastwest;" parent="j_IWQZukRgsDgJ5B7h0S-284" vertex="1">
          <mxGeometry y="736" width="330" height="26" as="geometry" />
        </mxCell>
        <mxCell id="zsWBfRV9gmnBReKQ3E4T-63" value="+EndOfTheMatch(): boolean" style="text;strokeColor=none;fillColor=none;align=left;verticalAlign=top;spacingLeft=4;spacingRight=4;overflow=hidden;rotatable=0;points=[[0,0.5],[1,0.5]];portConstraint=eastwest;" parent="j_IWQZukRgsDgJ5B7h0S-284" vertex="1">
          <mxGeometry y="762" width="330" height="26" as="geometry" />
        </mxCell>
        <mxCell id="j_IWQZukRgsDgJ5B7h0S-292" value="" style="endArrow=diamondThin;endFill=1;endSize=24;html=1;" parent="1" source="j_IWQZukRgsDgJ5B7h0S-274" target="j_IWQZukRgsDgJ5B7h0S-279" edge="1">
          <mxGeometry width="160" relative="1" as="geometry">
            <mxPoint x="-545.5" y="-1298" as="sourcePoint" />
            <mxPoint x="-785.5" y="-1930" as="targetPoint" />
          </mxGeometry>
        </mxCell>
        <mxCell id="j_IWQZukRgsDgJ5B7h0S-299" value="" style="endArrow=diamondThin;endFill=1;endSize=24;html=1;entryX=0.75;entryY=1;entryDx=0;entryDy=0;" parent="1" target="j_IWQZukRgsDgJ5B7h0S-45" edge="1">
          <mxGeometry width="160" relative="1" as="geometry">
            <mxPoint x="-1125" y="-1229" as="sourcePoint" />
            <mxPoint x="-1260" y="-1290" as="targetPoint" />
            <Array as="points">
              <mxPoint x="-1280" y="-1229" />
            </Array>
          </mxGeometry>
        </mxCell>
        <mxCell id="j_IWQZukRgsDgJ5B7h0S-300" value="" style="endArrow=diamondThin;endFill=1;endSize=24;html=1;" parent="1" source="j_IWQZukRgsDgJ5B7h0S-86" target="j_IWQZukRgsDgJ5B7h0S-45" edge="1">
          <mxGeometry width="160" relative="1" as="geometry">
            <mxPoint x="-1155.5" y="-698" as="sourcePoint" />
            <mxPoint x="-995.5" y="-698" as="targetPoint" />
          </mxGeometry>
        </mxCell>
        <mxCell id="j_IWQZukRgsDgJ5B7h0S-301" value="" style="endArrow=diamondThin;endFill=1;endSize=24;html=1;entryX=1;entryY=0.5;entryDx=0;entryDy=0;exitX=0;exitY=0.373;exitDx=0;exitDy=0;exitPerimeter=0;" parent="1" source="zsWBfRV9gmnBReKQ3E4T-20" target="j_IWQZukRgsDgJ5B7h0S-46" edge="1">
          <mxGeometry width="160" relative="1" as="geometry">
            <mxPoint x="-1155.5" y="-798" as="sourcePoint" />
            <mxPoint x="-995.5" y="-798" as="targetPoint" />
          </mxGeometry>
        </mxCell>
        <mxCell id="j_IWQZukRgsDgJ5B7h0S-305" value="" style="endArrow=diamondThin;endFill=1;endSize=24;html=1;exitX=-0.001;exitY=0.694;exitDx=0;exitDy=0;exitPerimeter=0;entryX=0.484;entryY=0.005;entryDx=0;entryDy=0;entryPerimeter=0;" parent="1" source="e2Iy07mbepDIcA7AyD_o-25" target="j_IWQZukRgsDgJ5B7h0S-279" edge="1">
          <mxGeometry width="160" relative="1" as="geometry">
            <mxPoint x="-815.5" y="-988" as="sourcePoint" />
            <mxPoint x="-802" y="-2039" as="targetPoint" />
            <Array as="points">
              <mxPoint x="-680" y="-2200" />
              <mxPoint x="-800" y="-2200" />
            </Array>
          </mxGeometry>
        </mxCell>
        <mxCell id="-SuyyC4R5xekOw7VtIkT-1" value="" style="endArrow=diamondThin;endFill=1;endSize=24;html=1;exitX=1;exitY=0.973;exitDx=0;exitDy=0;exitPerimeter=0;" parent="1" source="j_IWQZukRgsDgJ5B7h0S-79" edge="1">
          <mxGeometry width="160" relative="1" as="geometry">
            <mxPoint x="-1615.5" y="-1410" as="sourcePoint" />
            <mxPoint x="-1440" y="-1304" as="targetPoint" />
            <Array as="points">
              <mxPoint x="-1560" y="-1081" />
              <mxPoint x="-1560" y="-1240" />
              <mxPoint x="-1440" y="-1240" />
            </Array>
          </mxGeometry>
        </mxCell>
        <mxCell id="zsWBfRV9gmnBReKQ3E4T-21" value="«singleton»&#xa;Game" style="swimlane;fontStyle=1;align=center;verticalAlign=top;childLayout=stackLayout;horizontal=1;startSize=40;horizontalStack=0;resizeParent=1;resizeParentMax=0;resizeLast=0;collapsible=1;marginBottom=0;" parent="1" vertex="1">
          <mxGeometry x="-1325.5" y="-2070" width="240" height="242" as="geometry" />
        </mxCell>
        <mxCell id="j_IWQZukRgsDgJ5B7h0S-280" value="-players: ArrayList&lt;Player&gt;" style="text;strokeColor=none;fillColor=none;align=left;verticalAlign=top;spacingLeft=4;spacingRight=4;overflow=hidden;rotatable=0;points=[[0,0.5],[1,0.5]];portConstraint=eastwest;" parent="zsWBfRV9gmnBReKQ3E4T-21" vertex="1">
          <mxGeometry y="40" width="240" height="26" as="geometry" />
        </mxCell>
        <mxCell id="zsWBfRV9gmnBReKQ3E4T-22" value="-table: Table" style="text;strokeColor=none;fillColor=none;align=left;verticalAlign=top;spacingLeft=4;spacingRight=4;overflow=hidden;rotatable=0;points=[[0,0.5],[1,0.5]];portConstraint=eastwest;" parent="zsWBfRV9gmnBReKQ3E4T-21" vertex="1">
          <mxGeometry y="66" width="240" height="38" as="geometry" />
        </mxCell>
        <mxCell id="zsWBfRV9gmnBReKQ3E4T-23" value="" style="line;strokeWidth=1;fillColor=none;align=left;verticalAlign=middle;spacingTop=-1;spacingLeft=3;spacingRight=3;rotatable=0;labelPosition=right;points=[];portConstraint=eastwest;" parent="zsWBfRV9gmnBReKQ3E4T-21" vertex="1">
          <mxGeometry y="104" width="240" height="8" as="geometry" />
        </mxCell>
        <mxCell id="zsWBfRV9gmnBReKQ3E4T-24" value="+startGame()" style="text;strokeColor=none;fillColor=none;align=left;verticalAlign=top;spacingLeft=4;spacingRight=4;overflow=hidden;rotatable=0;points=[[0,0.5],[1,0.5]];portConstraint=eastwest;" parent="zsWBfRV9gmnBReKQ3E4T-21" vertex="1">
          <mxGeometry y="112" width="240" height="26" as="geometry" />
        </mxCell>
        <mxCell id="zsWBfRV9gmnBReKQ3E4T-27" value="+checkInListNicknamet(String): bolean" style="text;strokeColor=none;fillColor=none;align=left;verticalAlign=top;spacingLeft=4;spacingRight=4;overflow=hidden;rotatable=0;points=[[0,0.5],[1,0.5]];portConstraint=eastwest;" parent="zsWBfRV9gmnBReKQ3E4T-21" vertex="1">
          <mxGeometry y="138" width="240" height="26" as="geometry" />
        </mxCell>
        <mxCell id="zsWBfRV9gmnBReKQ3E4T-28" value="+addPlayer(String)" style="text;strokeColor=none;fillColor=none;align=left;verticalAlign=top;spacingLeft=4;spacingRight=4;overflow=hidden;rotatable=0;points=[[0,0.5],[1,0.5]];portConstraint=eastwest;" parent="zsWBfRV9gmnBReKQ3E4T-21" vertex="1">
          <mxGeometry y="164" width="240" height="26" as="geometry" />
        </mxCell>
        <mxCell id="zsWBfRV9gmnBReKQ3E4T-26" value="+getPlayerByNickename(String): Player" style="text;strokeColor=none;fillColor=none;align=left;verticalAlign=top;spacingLeft=4;spacingRight=4;overflow=hidden;rotatable=0;points=[[0,0.5],[1,0.5]];portConstraint=eastwest;" parent="zsWBfRV9gmnBReKQ3E4T-21" vertex="1">
          <mxGeometry y="190" width="240" height="26" as="geometry" />
        </mxCell>
        <mxCell id="zsWBfRV9gmnBReKQ3E4T-25" value="+endGame()" style="text;strokeColor=none;fillColor=none;align=left;verticalAlign=top;spacingLeft=4;spacingRight=4;overflow=hidden;rotatable=0;points=[[0,0.5],[1,0.5]];portConstraint=eastwest;" parent="zsWBfRV9gmnBReKQ3E4T-21" vertex="1">
          <mxGeometry y="216" width="240" height="26" as="geometry" />
        </mxCell>
        <mxCell id="6MP6MsQXi6saDkDlqXph-1" value="" style="endArrow=classic;html=1;exitX=0;exitY=0.5;exitDx=0;exitDy=0;entryX=0.5;entryY=0;entryDx=0;entryDy=0;" parent="1" source="j_IWQZukRgsDgJ5B7h0S-280" target="j_IWQZukRgsDgJ5B7h0S-284" edge="1">
          <mxGeometry width="50" height="50" relative="1" as="geometry">
            <mxPoint x="-1575.5" y="-1920" as="sourcePoint" />
            <mxPoint x="-1680" y="-1990" as="targetPoint" />
            <Array as="points">
              <mxPoint x="-1775" y="-2020" />
            </Array>
          </mxGeometry>
        </mxCell>
        <mxCell id="6MP6MsQXi6saDkDlqXph-2" value="comment:&lt;br&gt;for each class &lt;br&gt;there are theire &lt;br&gt;getter and constructor." style="html=1;" parent="1" vertex="1">
          <mxGeometry x="-1490" y="-1997" width="130" height="72" as="geometry" />
        </mxCell>
        <mxCell id="6MP6MsQXi6saDkDlqXph-3" value="Turn" style="swimlane;fontStyle=1;align=center;verticalAlign=top;childLayout=stackLayout;horizontal=1;startSize=26;horizontalStack=0;resizeParent=1;resizeParentMax=0;resizeLast=0;collapsible=1;marginBottom=0;" parent="1" vertex="1">
          <mxGeometry x="-1285.5" y="-1750" width="160" height="138" as="geometry" />
        </mxCell>
        <mxCell id="6MP6MsQXi6saDkDlqXph-8" value="-currentplayer: Player" style="text;strokeColor=none;fillColor=none;align=left;verticalAlign=top;spacingLeft=4;spacingRight=4;overflow=hidden;rotatable=0;points=[[0,0.5],[1,0.5]];portConstraint=eastwest;" parent="6MP6MsQXi6saDkDlqXph-3" vertex="1">
          <mxGeometry y="26" width="160" height="26" as="geometry" />
        </mxCell>
        <mxCell id="6MP6MsQXi6saDkDlqXph-5" value="" style="line;strokeWidth=1;fillColor=none;align=left;verticalAlign=middle;spacingTop=-1;spacingLeft=3;spacingRight=3;rotatable=0;labelPosition=right;points=[];portConstraint=eastwest;" parent="6MP6MsQXi6saDkDlqXph-3" vertex="1">
          <mxGeometry y="52" width="160" height="8" as="geometry" />
        </mxCell>
        <mxCell id="zsWBfRV9gmnBReKQ3E4T-62" value="+beginTurn()" style="text;strokeColor=none;fillColor=none;align=left;verticalAlign=top;spacingLeft=4;spacingRight=4;overflow=hidden;rotatable=0;points=[[0,0.5],[1,0.5]];portConstraint=eastwest;" parent="6MP6MsQXi6saDkDlqXph-3" vertex="1">
          <mxGeometry y="60" width="160" height="26" as="geometry" />
        </mxCell>
        <mxCell id="6MP6MsQXi6saDkDlqXph-11" value="-getFirstPlayer()" style="text;strokeColor=none;fillColor=none;align=left;verticalAlign=top;spacingLeft=4;spacingRight=4;overflow=hidden;rotatable=0;points=[[0,0.5],[1,0.5]];portConstraint=eastwest;" parent="6MP6MsQXi6saDkDlqXph-3" vertex="1">
          <mxGeometry y="86" width="160" height="26" as="geometry" />
        </mxCell>
        <mxCell id="6MP6MsQXi6saDkDlqXph-10" value="-nextPlayer()" style="text;strokeColor=none;fillColor=none;align=left;verticalAlign=top;spacingLeft=4;spacingRight=4;overflow=hidden;rotatable=0;points=[[0,0.5],[1,0.5]];portConstraint=eastwest;" parent="6MP6MsQXi6saDkDlqXph-3" vertex="1">
          <mxGeometry y="112" width="160" height="26" as="geometry" />
        </mxCell>
        <mxCell id="6MP6MsQXi6saDkDlqXph-9" value="" style="endArrow=classic;html=1;" parent="1" source="zsWBfRV9gmnBReKQ3E4T-21" target="6MP6MsQXi6saDkDlqXph-3" edge="1">
          <mxGeometry width="50" height="50" relative="1" as="geometry">
            <mxPoint x="-1015.5" y="-1650" as="sourcePoint" />
            <mxPoint x="-965.5" y="-1700" as="targetPoint" />
          </mxGeometry>
        </mxCell>
        <mxCell id="6MP6MsQXi6saDkDlqXph-12" style="edgeStyle=orthogonalEdgeStyle;rounded=0;orthogonalLoop=1;jettySize=auto;html=1;" parent="1" source="zsWBfRV9gmnBReKQ3E4T-62" target="j_IWQZukRgsDgJ5B7h0S-284" edge="1">
          <mxGeometry relative="1" as="geometry" />
        </mxCell>
        <mxCell id="6MP6MsQXi6saDkDlqXph-13" value="" style="endArrow=classic;html=1;exitX=1;exitY=0.5;exitDx=0;exitDy=0;" parent="1" source="zsWBfRV9gmnBReKQ3E4T-22" target="j_IWQZukRgsDgJ5B7h0S-279" edge="1">
          <mxGeometry width="50" height="50" relative="1" as="geometry">
            <mxPoint x="-975.5" y="-1930" as="sourcePoint" />
            <mxPoint x="-925.5" y="-1980" as="targetPoint" />
          </mxGeometry>
        </mxCell>
        <mxCell id="6MP6MsQXi6saDkDlqXph-17" value="" style="endArrow=none;html=1;exitX=1;exitY=0.5;exitDx=0;exitDy=0;" parent="1" source="j_IWQZukRgsDgJ5B7h0S-249" target="j_IWQZukRgsDgJ5B7h0S-123" edge="1">
          <mxGeometry width="50" height="50" relative="1" as="geometry">
            <mxPoint x="264.5" y="-1910" as="sourcePoint" />
            <mxPoint x="314.5" y="-1960" as="targetPoint" />
            <Array as="points">
              <mxPoint x="414.5" y="-2001" />
            </Array>
          </mxGeometry>
        </mxCell>
        <mxCell id="6MP6MsQXi6saDkDlqXph-18" value="" style="endArrow=none;html=1;exitX=1;exitY=0.5;exitDx=0;exitDy=0;entryX=1;entryY=0.104;entryDx=0;entryDy=0;entryPerimeter=0;" parent="1" source="j_IWQZukRgsDgJ5B7h0S-177" target="j_IWQZukRgsDgJ5B7h0S-192" edge="1">
          <mxGeometry width="50" height="50" relative="1" as="geometry">
            <mxPoint x="264.5" y="-2154" as="sourcePoint" />
            <mxPoint x="314.5" y="-2204" as="targetPoint" />
            <Array as="points">
              <mxPoint x="530" y="-1975" />
              <mxPoint x="530" y="-2338" />
            </Array>
          </mxGeometry>
        </mxCell>
        <mxCell id="6MP6MsQXi6saDkDlqXph-20" value="" style="endArrow=none;html=1;entryX=-0.011;entryY=0.984;entryDx=0;entryDy=0;entryPerimeter=0;" parent="1" target="j_IWQZukRgsDgJ5B7h0S-191" edge="1">
          <mxGeometry width="50" height="50" relative="1" as="geometry">
            <mxPoint x="155" y="-2310" as="sourcePoint" />
            <mxPoint x="-5.5" y="-2320" as="targetPoint" />
            <Array as="points">
              <mxPoint x="155" y="-2341" />
            </Array>
          </mxGeometry>
        </mxCell>
        <mxCell id="6MP6MsQXi6saDkDlqXph-22" value="" style="endArrow=none;html=1;exitX=1;exitY=0.5;exitDx=0;exitDy=0;entryX=0.186;entryY=1.017;entryDx=0;entryDy=0;entryPerimeter=0;" parent="1" source="j_IWQZukRgsDgJ5B7h0S-176" target="j_IWQZukRgsDgJ5B7h0S-192" edge="1">
          <mxGeometry width="50" height="50" relative="1" as="geometry">
            <mxPoint x="-85.5" y="-1890" as="sourcePoint" />
            <mxPoint x="-35.5" y="-1940" as="targetPoint" />
            <Array as="points">
              <mxPoint x="294.5" y="-2125" />
              <mxPoint x="295" y="-2294" />
              <mxPoint x="366" y="-2294" />
            </Array>
          </mxGeometry>
        </mxCell>
        <mxCell id="6MP6MsQXi6saDkDlqXph-29" value="" style="endArrow=classic;html=1;exitX=1;exitY=0.5;exitDx=0;exitDy=0;entryX=0.42;entryY=1.026;entryDx=0;entryDy=0;entryPerimeter=0;" parent="1" source="j_IWQZukRgsDgJ5B7h0S-110" target="6MP6MsQXi6saDkDlqXph-23" edge="1">
          <mxGeometry width="50" height="50" relative="1" as="geometry">
            <mxPoint x="-525.5" y="-1260" as="sourcePoint" />
            <mxPoint x="-151" y="-1624" as="targetPoint" />
            <Array as="points">
              <mxPoint x="-645.5" y="-1272" />
              <mxPoint x="-645.5" y="-1590" />
              <mxPoint x="-135" y="-1590" />
            </Array>
          </mxGeometry>
        </mxCell>
        <mxCell id="6MP6MsQXi6saDkDlqXph-31" value="" style="endArrow=none;html=1;exitX=1.005;exitY=0.151;exitDx=0;exitDy=0;exitPerimeter=0;" parent="1" source="j_IWQZukRgsDgJ5B7h0S-188" target="j_IWQZukRgsDgJ5B7h0S-78" edge="1">
          <mxGeometry width="50" height="50" relative="1" as="geometry">
            <mxPoint x="-1725.5" y="-1130" as="sourcePoint" />
            <mxPoint x="-1675.5" y="-1180" as="targetPoint" />
            <Array as="points">
              <mxPoint x="620" y="-2437" />
              <mxPoint x="620" y="-860" />
              <mxPoint x="-1715" y="-860" />
            </Array>
          </mxGeometry>
        </mxCell>
        <mxCell id="e2Iy07mbepDIcA7AyD_o-3" value="Marble" style="swimlane;fontStyle=1;align=center;verticalAlign=top;childLayout=stackLayout;horizontal=1;startSize=26;horizontalStack=0;resizeParent=1;resizeParentMax=0;resizeLast=0;collapsible=1;marginBottom=0;" parent="1" vertex="1">
          <mxGeometry x="-600" y="-1520" width="340" height="112" as="geometry" />
        </mxCell>
        <mxCell id="e2Iy07mbepDIcA7AyD_o-5" value="" style="line;strokeWidth=1;fillColor=none;align=left;verticalAlign=middle;spacingTop=-1;spacingLeft=3;spacingRight=3;rotatable=0;labelPosition=right;points=[];portConstraint=eastwest;" parent="e2Iy07mbepDIcA7AyD_o-3" vertex="1">
          <mxGeometry y="26" width="340" height="8" as="geometry" />
        </mxCell>
        <mxCell id="e2Iy07mbepDIcA7AyD_o-6" value="+putResource(WarehouseDepots, int)" style="text;strokeColor=none;fillColor=none;align=left;verticalAlign=top;spacingLeft=4;spacingRight=4;overflow=hidden;rotatable=0;points=[[0,0.5],[1,0.5]];portConstraint=eastwest;" parent="e2Iy07mbepDIcA7AyD_o-3" vertex="1">
          <mxGeometry y="34" width="340" height="26" as="geometry" />
        </mxCell>
        <mxCell id="Ni3QF3jS_E6Amse3e-I2-9" value="+putResource(LeaderCard)" style="text;strokeColor=none;fillColor=none;align=left;verticalAlign=top;spacingLeft=4;spacingRight=4;overflow=hidden;rotatable=0;points=[[0,0.5],[1,0.5]];portConstraint=eastwest;" parent="e2Iy07mbepDIcA7AyD_o-3" vertex="1">
          <mxGeometry y="60" width="340" height="26" as="geometry" />
        </mxCell>
        <mxCell id="Ni3QF3jS_E6Amse3e-I2-10" value="+putResource(FaithTrack)" style="text;strokeColor=none;fillColor=none;align=left;verticalAlign=top;spacingLeft=4;spacingRight=4;overflow=hidden;rotatable=0;points=[[0,0.5],[1,0.5]];portConstraint=eastwest;" parent="e2Iy07mbepDIcA7AyD_o-3" vertex="1">
          <mxGeometry y="86" width="340" height="26" as="geometry" />
        </mxCell>
        <mxCell id="e2Iy07mbepDIcA7AyD_o-7" value="Coin" style="swimlane;fontStyle=1;align=center;verticalAlign=top;childLayout=stackLayout;horizontal=1;startSize=26;horizontalStack=0;resizeParent=1;resizeParentMax=0;resizeLast=0;collapsible=1;marginBottom=0;" parent="1" vertex="1">
          <mxGeometry x="-150" y="-1390" width="160" height="60" as="geometry" />
        </mxCell>
        <mxCell id="I1I3rjsC-SGCzknYV9vt-7" value="-whatIAm: Resource" style="text;strokeColor=none;fillColor=none;align=left;verticalAlign=top;spacingLeft=4;spacingRight=4;overflow=hidden;rotatable=0;points=[[0,0.5],[1,0.5]];portConstraint=eastwest;" parent="e2Iy07mbepDIcA7AyD_o-7" vertex="1">
          <mxGeometry y="26" width="160" height="26" as="geometry" />
        </mxCell>
        <mxCell id="e2Iy07mbepDIcA7AyD_o-9" value="" style="line;strokeWidth=1;fillColor=none;align=left;verticalAlign=middle;spacingTop=-1;spacingLeft=3;spacingRight=3;rotatable=0;labelPosition=right;points=[];portConstraint=eastwest;" parent="e2Iy07mbepDIcA7AyD_o-7" vertex="1">
          <mxGeometry y="52" width="160" height="8" as="geometry" />
        </mxCell>
        <mxCell id="e2Iy07mbepDIcA7AyD_o-11" value="Stone" style="swimlane;fontStyle=1;align=center;verticalAlign=top;childLayout=stackLayout;horizontal=1;startSize=26;horizontalStack=0;resizeParent=1;resizeParentMax=0;resizeLast=0;collapsible=1;marginBottom=0;" parent="1" vertex="1">
          <mxGeometry x="-150" y="-1322" width="160" height="60" as="geometry" />
        </mxCell>
        <mxCell id="I1I3rjsC-SGCzknYV9vt-8" value="-whatIAm: Resource" style="text;strokeColor=none;fillColor=none;align=left;verticalAlign=top;spacingLeft=4;spacingRight=4;overflow=hidden;rotatable=0;points=[[0,0.5],[1,0.5]];portConstraint=eastwest;" parent="e2Iy07mbepDIcA7AyD_o-11" vertex="1">
          <mxGeometry y="26" width="160" height="26" as="geometry" />
        </mxCell>
        <mxCell id="e2Iy07mbepDIcA7AyD_o-12" value="" style="line;strokeWidth=1;fillColor=none;align=left;verticalAlign=middle;spacingTop=-1;spacingLeft=3;spacingRight=3;rotatable=0;labelPosition=right;points=[];portConstraint=eastwest;" parent="e2Iy07mbepDIcA7AyD_o-11" vertex="1">
          <mxGeometry y="52" width="160" height="8" as="geometry" />
        </mxCell>
        <mxCell id="e2Iy07mbepDIcA7AyD_o-13" value="Servant" style="swimlane;fontStyle=1;align=center;verticalAlign=top;childLayout=stackLayout;horizontal=1;startSize=26;horizontalStack=0;resizeParent=1;resizeParentMax=0;resizeLast=0;collapsible=1;marginBottom=0;" parent="1" vertex="1">
          <mxGeometry x="-150" y="-1252" width="160" height="60" as="geometry" />
        </mxCell>
        <mxCell id="I1I3rjsC-SGCzknYV9vt-9" value="-whatIAm: Resource" style="text;strokeColor=none;fillColor=none;align=left;verticalAlign=top;spacingLeft=4;spacingRight=4;overflow=hidden;rotatable=0;points=[[0,0.5],[1,0.5]];portConstraint=eastwest;" parent="e2Iy07mbepDIcA7AyD_o-13" vertex="1">
          <mxGeometry y="26" width="160" height="26" as="geometry" />
        </mxCell>
        <mxCell id="e2Iy07mbepDIcA7AyD_o-14" value="" style="line;strokeWidth=1;fillColor=none;align=left;verticalAlign=middle;spacingTop=-1;spacingLeft=3;spacingRight=3;rotatable=0;labelPosition=right;points=[];portConstraint=eastwest;" parent="e2Iy07mbepDIcA7AyD_o-13" vertex="1">
          <mxGeometry y="52" width="160" height="8" as="geometry" />
        </mxCell>
        <mxCell id="e2Iy07mbepDIcA7AyD_o-15" value="Shield" style="swimlane;fontStyle=1;align=center;verticalAlign=top;childLayout=stackLayout;horizontal=1;startSize=26;horizontalStack=0;resizeParent=1;resizeParentMax=0;resizeLast=0;collapsible=1;marginBottom=0;" parent="1" vertex="1">
          <mxGeometry x="-150" y="-1182" width="160" height="60" as="geometry" />
        </mxCell>
        <mxCell id="I1I3rjsC-SGCzknYV9vt-10" value="-whatIAm: Resource" style="text;strokeColor=none;fillColor=none;align=left;verticalAlign=top;spacingLeft=4;spacingRight=4;overflow=hidden;rotatable=0;points=[[0,0.5],[1,0.5]];portConstraint=eastwest;" parent="e2Iy07mbepDIcA7AyD_o-15" vertex="1">
          <mxGeometry y="26" width="160" height="26" as="geometry" />
        </mxCell>
        <mxCell id="e2Iy07mbepDIcA7AyD_o-16" value="" style="line;strokeWidth=1;fillColor=none;align=left;verticalAlign=middle;spacingTop=-1;spacingLeft=3;spacingRight=3;rotatable=0;labelPosition=right;points=[];portConstraint=eastwest;" parent="e2Iy07mbepDIcA7AyD_o-15" vertex="1">
          <mxGeometry y="52" width="160" height="8" as="geometry" />
        </mxCell>
        <mxCell id="e2Iy07mbepDIcA7AyD_o-17" value="White" style="swimlane;fontStyle=1;align=center;verticalAlign=top;childLayout=stackLayout;horizontal=1;startSize=26;horizontalStack=0;resizeParent=1;resizeParentMax=0;resizeLast=0;collapsible=1;marginBottom=0;" parent="1" vertex="1">
          <mxGeometry x="-150" y="-1112" width="160" height="60" as="geometry" />
        </mxCell>
        <mxCell id="I1I3rjsC-SGCzknYV9vt-11" value="-whatIAm: Resource" style="text;strokeColor=none;fillColor=none;align=left;verticalAlign=top;spacingLeft=4;spacingRight=4;overflow=hidden;rotatable=0;points=[[0,0.5],[1,0.5]];portConstraint=eastwest;" parent="e2Iy07mbepDIcA7AyD_o-17" vertex="1">
          <mxGeometry y="26" width="160" height="26" as="geometry" />
        </mxCell>
        <mxCell id="e2Iy07mbepDIcA7AyD_o-18" value="" style="line;strokeWidth=1;fillColor=none;align=left;verticalAlign=middle;spacingTop=-1;spacingLeft=3;spacingRight=3;rotatable=0;labelPosition=right;points=[];portConstraint=eastwest;" parent="e2Iy07mbepDIcA7AyD_o-17" vertex="1">
          <mxGeometry y="52" width="160" height="8" as="geometry" />
        </mxCell>
        <mxCell id="e2Iy07mbepDIcA7AyD_o-19" value="Faith" style="swimlane;fontStyle=1;align=center;verticalAlign=top;childLayout=stackLayout;horizontal=1;startSize=26;horizontalStack=0;resizeParent=1;resizeParentMax=0;resizeLast=0;collapsible=1;marginBottom=0;" parent="1" vertex="1">
          <mxGeometry x="-150" y="-1032" width="160" height="60" as="geometry" />
        </mxCell>
        <mxCell id="I1I3rjsC-SGCzknYV9vt-12" value="-whatIAm: Resource" style="text;strokeColor=none;fillColor=none;align=left;verticalAlign=top;spacingLeft=4;spacingRight=4;overflow=hidden;rotatable=0;points=[[0,0.5],[1,0.5]];portConstraint=eastwest;" parent="e2Iy07mbepDIcA7AyD_o-19" vertex="1">
          <mxGeometry y="26" width="160" height="26" as="geometry" />
        </mxCell>
        <mxCell id="e2Iy07mbepDIcA7AyD_o-20" value="" style="line;strokeWidth=1;fillColor=none;align=left;verticalAlign=middle;spacingTop=-1;spacingLeft=3;spacingRight=3;rotatable=0;labelPosition=right;points=[];portConstraint=eastwest;" parent="e2Iy07mbepDIcA7AyD_o-19" vertex="1">
          <mxGeometry y="52" width="160" height="8" as="geometry" />
        </mxCell>
        <mxCell id="e2Iy07mbepDIcA7AyD_o-25" value="Deck«abstract»" style="swimlane;fontStyle=1;align=center;verticalAlign=top;childLayout=stackLayout;horizontal=1;startSize=26;horizontalStack=0;resizeParent=1;resizeParentMax=0;resizeLast=0;collapsible=1;marginBottom=0;" parent="1" vertex="1">
          <mxGeometry x="-720" y="-2224" width="160" height="34" as="geometry" />
        </mxCell>
        <mxCell id="e2Iy07mbepDIcA7AyD_o-27" value="" style="line;strokeWidth=1;fillColor=none;align=left;verticalAlign=middle;spacingTop=-1;spacingLeft=3;spacingRight=3;rotatable=0;labelPosition=right;points=[];portConstraint=eastwest;" parent="e2Iy07mbepDIcA7AyD_o-25" vertex="1">
          <mxGeometry y="26" width="160" height="8" as="geometry" />
        </mxCell>
        <mxCell id="e2Iy07mbepDIcA7AyD_o-29" value="Card«abstract»" style="swimlane;fontStyle=1;align=center;verticalAlign=top;childLayout=stackLayout;horizontal=1;startSize=26;horizontalStack=0;resizeParent=1;resizeParentMax=0;resizeLast=0;collapsible=1;marginBottom=0;" parent="1" vertex="1">
          <mxGeometry x="-240" y="-2031" width="160" height="34" as="geometry" />
        </mxCell>
        <mxCell id="e2Iy07mbepDIcA7AyD_o-31" value="" style="line;strokeWidth=1;fillColor=none;align=left;verticalAlign=middle;spacingTop=-1;spacingLeft=3;spacingRight=3;rotatable=0;labelPosition=right;points=[];portConstraint=eastwest;" parent="e2Iy07mbepDIcA7AyD_o-29" vertex="1">
          <mxGeometry y="26" width="160" height="8" as="geometry" />
        </mxCell>
        <mxCell id="Dj6PW9C-VZuECv3QVdTz-2" value="Extends" style="endArrow=block;endSize=16;endFill=0;html=1;exitX=0.53;exitY=0;exitDx=0;exitDy=0;exitPerimeter=0;" parent="1" source="j_IWQZukRgsDgJ5B7h0S-167" target="e2Iy07mbepDIcA7AyD_o-25" edge="1">
          <mxGeometry x="0.099" width="160" relative="1" as="geometry">
            <mxPoint x="-390" y="-2170" as="sourcePoint" />
            <mxPoint x="-105.5" y="-2149" as="targetPoint" />
            <Array as="points">
              <mxPoint x="-390" y="-2207" />
            </Array>
            <mxPoint as="offset" />
          </mxGeometry>
        </mxCell>
        <mxCell id="Dj6PW9C-VZuECv3QVdTz-3" value="Extends" style="endArrow=block;endSize=16;endFill=0;html=1;exitX=0;exitY=0.664;exitDx=0;exitDy=0;exitPerimeter=0;" parent="1" source="-SuyyC4R5xekOw7VtIkT-9" target="e2Iy07mbepDIcA7AyD_o-25" edge="1">
          <mxGeometry width="160" relative="1" as="geometry">
            <mxPoint x="-105.5" y="-2240" as="sourcePoint" />
            <mxPoint x="-105.5" y="-2149" as="targetPoint" />
            <Array as="points">
              <mxPoint x="-640" y="-1980" />
            </Array>
          </mxGeometry>
        </mxCell>
        <mxCell id="Dj6PW9C-VZuECv3QVdTz-4" value="Extends" style="endArrow=block;endSize=16;endFill=0;html=1;entryX=0.75;entryY=0;entryDx=0;entryDy=0;" parent="1" source="j_IWQZukRgsDgJ5B7h0S-152" target="e2Iy07mbepDIcA7AyD_o-29" edge="1">
          <mxGeometry width="160" relative="1" as="geometry">
            <mxPoint x="-160" y="-2099" as="sourcePoint" />
            <mxPoint x="-105.5" y="-2149" as="targetPoint" />
          </mxGeometry>
        </mxCell>
        <mxCell id="Dj6PW9C-VZuECv3QVdTz-5" value="Extends" style="endArrow=block;endSize=16;endFill=0;html=1;" parent="1" source="j_IWQZukRgsDgJ5B7h0S-113" edge="1">
          <mxGeometry width="160" relative="1" as="geometry">
            <mxPoint x="-150" y="-2089" as="sourcePoint" />
            <mxPoint x="-115" y="-1997" as="targetPoint" />
          </mxGeometry>
        </mxCell>
        <mxCell id="Dj6PW9C-VZuECv3QVdTz-6" value="" style="endArrow=diamondThin;endFill=1;endSize=24;html=1;" parent="1" source="e2Iy07mbepDIcA7AyD_o-3" target="j_IWQZukRgsDgJ5B7h0S-274" edge="1">
          <mxGeometry width="160" relative="1" as="geometry">
            <mxPoint x="-230" y="-2008.0800000000002" as="sourcePoint" />
            <mxPoint x="-295.5" y="-2008" as="targetPoint" />
            <Array as="points">
              <mxPoint x="-430" y="-1708" />
            </Array>
          </mxGeometry>
        </mxCell>
        <mxCell id="Dj6PW9C-VZuECv3QVdTz-7" value="Extends" style="endArrow=block;endSize=16;endFill=0;html=1;" parent="1" source="e2Iy07mbepDIcA7AyD_o-19" target="e2Iy07mbepDIcA7AyD_o-3" edge="1">
          <mxGeometry x="0.801" width="160" relative="1" as="geometry">
            <mxPoint x="-480" y="-1190" as="sourcePoint" />
            <mxPoint x="-487.4333333333335" y="-1616" as="targetPoint" />
            <Array as="points">
              <mxPoint x="-430" y="-1004" />
            </Array>
            <mxPoint as="offset" />
          </mxGeometry>
        </mxCell>
        <mxCell id="Dj6PW9C-VZuECv3QVdTz-8" value="" style="endArrow=none;html=1;entryX=0.001;entryY=0.589;entryDx=0;entryDy=0;entryPerimeter=0;" parent="1" target="e2Iy07mbepDIcA7AyD_o-7" edge="1">
          <mxGeometry width="50" height="50" relative="1" as="geometry">
            <mxPoint x="-430" y="-1355" as="sourcePoint" />
            <mxPoint x="130" y="-1356" as="targetPoint" />
          </mxGeometry>
        </mxCell>
        <mxCell id="Dj6PW9C-VZuECv3QVdTz-9" value="" style="endArrow=none;html=1;" parent="1" target="e2Iy07mbepDIcA7AyD_o-11" edge="1">
          <mxGeometry width="50" height="50" relative="1" as="geometry">
            <mxPoint x="-430" y="-1292" as="sourcePoint" />
            <mxPoint x="80" y="-1284" as="targetPoint" />
          </mxGeometry>
        </mxCell>
        <mxCell id="Dj6PW9C-VZuECv3QVdTz-10" value="" style="endArrow=none;html=1;" parent="1" target="e2Iy07mbepDIcA7AyD_o-13" edge="1">
          <mxGeometry width="50" height="50" relative="1" as="geometry">
            <mxPoint x="-430" y="-1222" as="sourcePoint" />
            <mxPoint x="100" y="-1224" as="targetPoint" />
          </mxGeometry>
        </mxCell>
        <mxCell id="Dj6PW9C-VZuECv3QVdTz-11" value="" style="endArrow=none;html=1;" parent="1" target="e2Iy07mbepDIcA7AyD_o-15" edge="1">
          <mxGeometry width="50" height="50" relative="1" as="geometry">
            <mxPoint x="-430" y="-1152" as="sourcePoint" />
            <mxPoint x="90" y="-1164" as="targetPoint" />
          </mxGeometry>
        </mxCell>
        <mxCell id="Dj6PW9C-VZuECv3QVdTz-12" value="" style="endArrow=none;html=1;" parent="1" target="e2Iy07mbepDIcA7AyD_o-17" edge="1">
          <mxGeometry width="50" height="50" relative="1" as="geometry">
            <mxPoint x="-430" y="-1082" as="sourcePoint" />
            <mxPoint x="90" y="-1094" as="targetPoint" />
          </mxGeometry>
        </mxCell>
        <mxCell id="Ni3QF3jS_E6Amse3e-I2-1" value="«enumeration»&#xa;RowColumn" style="swimlane;fontStyle=1;childLayout=stackLayout;horizontal=1;startSize=40;fillColor=none;horizontalStack=0;resizeParent=1;resizeParentMax=0;resizeLast=0;collapsible=1;marginBottom=0;verticalAlign=top;" parent="1" vertex="1">
          <mxGeometry x="-2310" y="-1780" width="160" height="92" as="geometry" />
        </mxCell>
        <mxCell id="Ni3QF3jS_E6Amse3e-I2-2" value="ROW" style="text;strokeColor=none;fillColor=none;align=left;verticalAlign=top;spacingLeft=4;spacingRight=4;overflow=hidden;rotatable=0;points=[[0,0.5],[1,0.5]];portConstraint=eastwest;" parent="Ni3QF3jS_E6Amse3e-I2-1" vertex="1">
          <mxGeometry y="40" width="160" height="26" as="geometry" />
        </mxCell>
        <mxCell id="Ni3QF3jS_E6Amse3e-I2-3" value="COLUMN" style="text;strokeColor=none;fillColor=none;align=left;verticalAlign=top;spacingLeft=4;spacingRight=4;overflow=hidden;rotatable=0;points=[[0,0.5],[1,0.5]];portConstraint=eastwest;" parent="Ni3QF3jS_E6Amse3e-I2-1" vertex="1">
          <mxGeometry y="66" width="160" height="26" as="geometry" />
        </mxCell>
        <mxCell id="I1I3rjsC-SGCzknYV9vt-2" value="" style="endArrow=classic;html=1;entryX=0.5;entryY=0;entryDx=0;entryDy=0;exitX=1;exitY=0.5;exitDx=0;exitDy=0;" parent="1" source="bMicbcqdzmjaKOhH1kFO-9" target="j_IWQZukRgsDgJ5B7h0S-45" edge="1">
          <mxGeometry width="50" height="50" relative="1" as="geometry">
            <mxPoint x="-1440" y="-1770" as="sourcePoint" />
            <mxPoint x="-1390" y="-1820" as="targetPoint" />
            <Array as="points">
              <mxPoint x="-1350" y="-1810" />
            </Array>
          </mxGeometry>
        </mxCell>
        <mxCell id="bMicbcqdzmjaKOhH1kFO-2" value="«enumeration»&#xa;LeaderWerehouse" style="swimlane;fontStyle=1;align=center;verticalAlign=top;childLayout=stackLayout;horizontal=1;startSize=41;horizontalStack=0;resizeParent=1;resizeParentMax=0;resizeLast=0;collapsible=1;marginBottom=0;" parent="1" vertex="1">
          <mxGeometry x="-2310" y="-1652" width="160" height="93" as="geometry" />
        </mxCell>
        <mxCell id="bMicbcqdzmjaKOhH1kFO-3" value="LEADERCARD" style="text;strokeColor=none;fillColor=none;align=left;verticalAlign=top;spacingLeft=4;spacingRight=4;overflow=hidden;rotatable=0;points=[[0,0.5],[1,0.5]];portConstraint=eastwest;" parent="bMicbcqdzmjaKOhH1kFO-2" vertex="1">
          <mxGeometry y="41" width="160" height="26" as="geometry" />
        </mxCell>
        <mxCell id="bMicbcqdzmjaKOhH1kFO-6" value="WEREHOUSEDEPOTS&#xa;" style="text;strokeColor=none;fillColor=none;align=left;verticalAlign=top;spacingLeft=4;spacingRight=4;overflow=hidden;rotatable=0;points=[[0,0.5],[1,0.5]];portConstraint=eastwest;" parent="bMicbcqdzmjaKOhH1kFO-2" vertex="1">
          <mxGeometry y="67" width="160" height="26" as="geometry" />
        </mxCell>
        <mxCell id="OgO2rLDLhNm8SteHVFdJ-1" value="ResourceProduction" style="swimlane;fontStyle=1;align=center;verticalAlign=top;childLayout=stackLayout;horizontal=1;startSize=26;horizontalStack=0;resizeParent=1;resizeParentMax=0;resizeLast=0;collapsible=1;marginBottom=0;" parent="1" vertex="1">
          <mxGeometry x="-2270" y="-2384" width="280" height="346" as="geometry" />
        </mxCell>
        <mxCell id="OgO2rLDLhNm8SteHVFdJ-2" value="-requiredCoin: int" style="text;strokeColor=none;fillColor=none;align=left;verticalAlign=top;spacingLeft=4;spacingRight=4;overflow=hidden;rotatable=0;points=[[0,0.5],[1,0.5]];portConstraint=eastwest;" parent="OgO2rLDLhNm8SteHVFdJ-1" vertex="1">
          <mxGeometry y="26" width="280" height="26" as="geometry" />
        </mxCell>
        <mxCell id="OgO2rLDLhNm8SteHVFdJ-5" value="-requiredStone: int" style="text;strokeColor=none;fillColor=none;align=left;verticalAlign=top;spacingLeft=4;spacingRight=4;overflow=hidden;rotatable=0;points=[[0,0.5],[1,0.5]];portConstraint=eastwest;" parent="OgO2rLDLhNm8SteHVFdJ-1" vertex="1">
          <mxGeometry y="52" width="280" height="26" as="geometry" />
        </mxCell>
        <mxCell id="OgO2rLDLhNm8SteHVFdJ-6" value="-requiredServant: int" style="text;strokeColor=none;fillColor=none;align=left;verticalAlign=top;spacingLeft=4;spacingRight=4;overflow=hidden;rotatable=0;points=[[0,0.5],[1,0.5]];portConstraint=eastwest;" parent="OgO2rLDLhNm8SteHVFdJ-1" vertex="1">
          <mxGeometry y="78" width="280" height="26" as="geometry" />
        </mxCell>
        <mxCell id="OgO2rLDLhNm8SteHVFdJ-7" value="-requiredShield: int" style="text;strokeColor=none;fillColor=none;align=left;verticalAlign=top;spacingLeft=4;spacingRight=4;overflow=hidden;rotatable=0;points=[[0,0.5],[1,0.5]];portConstraint=eastwest;" parent="OgO2rLDLhNm8SteHVFdJ-1" vertex="1">
          <mxGeometry y="104" width="280" height="26" as="geometry" />
        </mxCell>
        <mxCell id="OgO2rLDLhNm8SteHVFdJ-8" value="-requiredGeneric: int" style="text;strokeColor=none;fillColor=none;align=left;verticalAlign=top;spacingLeft=4;spacingRight=4;overflow=hidden;rotatable=0;points=[[0,0.5],[1,0.5]];portConstraint=eastwest;" parent="OgO2rLDLhNm8SteHVFdJ-1" vertex="1">
          <mxGeometry y="130" width="280" height="26" as="geometry" />
        </mxCell>
        <mxCell id="OgO2rLDLhNm8SteHVFdJ-9" value="-productionCoin: int" style="text;strokeColor=none;fillColor=none;align=left;verticalAlign=top;spacingLeft=4;spacingRight=4;overflow=hidden;rotatable=0;points=[[0,0.5],[1,0.5]];portConstraint=eastwest;" parent="OgO2rLDLhNm8SteHVFdJ-1" vertex="1">
          <mxGeometry y="156" width="280" height="26" as="geometry" />
        </mxCell>
        <mxCell id="OgO2rLDLhNm8SteHVFdJ-12" value="-productionStone: int" style="text;strokeColor=none;fillColor=none;align=left;verticalAlign=top;spacingLeft=4;spacingRight=4;overflow=hidden;rotatable=0;points=[[0,0.5],[1,0.5]];portConstraint=eastwest;" parent="OgO2rLDLhNm8SteHVFdJ-1" vertex="1">
          <mxGeometry y="182" width="280" height="26" as="geometry" />
        </mxCell>
        <mxCell id="OgO2rLDLhNm8SteHVFdJ-13" value="-productionServant: int" style="text;strokeColor=none;fillColor=none;align=left;verticalAlign=top;spacingLeft=4;spacingRight=4;overflow=hidden;rotatable=0;points=[[0,0.5],[1,0.5]];portConstraint=eastwest;" parent="OgO2rLDLhNm8SteHVFdJ-1" vertex="1">
          <mxGeometry y="208" width="280" height="26" as="geometry" />
        </mxCell>
        <mxCell id="OgO2rLDLhNm8SteHVFdJ-14" value="-productionShield: int" style="text;strokeColor=none;fillColor=none;align=left;verticalAlign=top;spacingLeft=4;spacingRight=4;overflow=hidden;rotatable=0;points=[[0,0.5],[1,0.5]];portConstraint=eastwest;" parent="OgO2rLDLhNm8SteHVFdJ-1" vertex="1">
          <mxGeometry y="234" width="280" height="26" as="geometry" />
        </mxCell>
        <mxCell id="OgO2rLDLhNm8SteHVFdJ-15" value="-productionGeneric: int" style="text;strokeColor=none;fillColor=none;align=left;verticalAlign=top;spacingLeft=4;spacingRight=4;overflow=hidden;rotatable=0;points=[[0,0.5],[1,0.5]];portConstraint=eastwest;" parent="OgO2rLDLhNm8SteHVFdJ-1" vertex="1">
          <mxGeometry y="260" width="280" height="26" as="geometry" />
        </mxCell>
        <mxCell id="OgO2rLDLhNm8SteHVFdJ-16" value="-productionFaith: int" style="text;strokeColor=none;fillColor=none;align=left;verticalAlign=top;spacingLeft=4;spacingRight=4;overflow=hidden;rotatable=0;points=[[0,0.5],[1,0.5]];portConstraint=eastwest;" parent="OgO2rLDLhNm8SteHVFdJ-1" vertex="1">
          <mxGeometry y="286" width="280" height="26" as="geometry" />
        </mxCell>
        <mxCell id="OgO2rLDLhNm8SteHVFdJ-3" value="" style="line;strokeWidth=1;fillColor=none;align=left;verticalAlign=middle;spacingTop=-1;spacingLeft=3;spacingRight=3;rotatable=0;labelPosition=right;points=[];portConstraint=eastwest;" parent="OgO2rLDLhNm8SteHVFdJ-1" vertex="1">
          <mxGeometry y="312" width="280" height="8" as="geometry" />
        </mxCell>
        <mxCell id="OgO2rLDLhNm8SteHVFdJ-4" value="+sum(ResourceProduction): ResourceProduction" style="text;strokeColor=none;fillColor=none;align=left;verticalAlign=top;spacingLeft=4;spacingRight=4;overflow=hidden;rotatable=0;points=[[0,0.5],[1,0.5]];portConstraint=eastwest;" parent="OgO2rLDLhNm8SteHVFdJ-1" vertex="1">
          <mxGeometry y="320" width="280" height="26" as="geometry" />
        </mxCell>
        <mxCell id="3B-92UQkA-Mj99n0AdDV-1" value="Production«interface»" style="swimlane;fontStyle=1;align=center;verticalAlign=top;childLayout=stackLayout;horizontal=1;startSize=26;horizontalStack=0;resizeParent=1;resizeParentMax=0;resizeLast=0;collapsible=1;marginBottom=0;" parent="1" vertex="1">
          <mxGeometry x="90" y="-1888" width="250" height="60" as="geometry" />
        </mxCell>
        <mxCell id="3B-92UQkA-Mj99n0AdDV-3" value="" style="line;strokeWidth=1;fillColor=none;align=left;verticalAlign=middle;spacingTop=-1;spacingLeft=3;spacingRight=3;rotatable=0;labelPosition=right;points=[];portConstraint=eastwest;" parent="3B-92UQkA-Mj99n0AdDV-1" vertex="1">
          <mxGeometry y="26" width="250" height="8" as="geometry" />
        </mxCell>
        <mxCell id="3B-92UQkA-Mj99n0AdDV-4" value="+resourceProduction(): ResourceProduction" style="text;strokeColor=none;fillColor=none;align=left;verticalAlign=top;spacingLeft=4;spacingRight=4;overflow=hidden;rotatable=0;points=[[0,0.5],[1,0.5]];portConstraint=eastwest;" parent="3B-92UQkA-Mj99n0AdDV-1" vertex="1">
          <mxGeometry y="34" width="250" height="26" as="geometry" />
        </mxCell>
        <mxCell id="3B-92UQkA-Mj99n0AdDV-6" value="Implements" style="endArrow=block;endSize=16;endFill=0;html=1;exitX=0.961;exitY=0.001;exitDx=0;exitDy=0;exitPerimeter=0;entryX=1;entryY=0.5;entryDx=0;entryDy=0;" parent="1" source="3B-92UQkA-Mj99n0AdDV-1" target="6MP6MsQXi6saDkDlqXph-15" edge="1">
          <mxGeometry width="160" relative="1" as="geometry">
            <mxPoint x="230" y="-1760" as="sourcePoint" />
            <mxPoint x="305" y="-2030" as="targetPoint" />
            <Array as="points">
              <mxPoint x="330" y="-1941" />
            </Array>
          </mxGeometry>
        </mxCell>
        <mxCell id="3B-92UQkA-Mj99n0AdDV-7" value="Implements" style="endArrow=block;endSize=16;endFill=0;html=1;entryX=0.999;entryY=0.742;entryDx=0;entryDy=0;entryPerimeter=0;exitX=0;exitY=0.27;exitDx=0;exitDy=0;exitPerimeter=0;" parent="1" source="3B-92UQkA-Mj99n0AdDV-1" target="j_IWQZukRgsDgJ5B7h0S-137" edge="1">
          <mxGeometry width="160" relative="1" as="geometry">
            <mxPoint x="80" y="-1873" as="sourcePoint" />
            <mxPoint x="355" y="-1902" as="targetPoint" />
          </mxGeometry>
        </mxCell>
        <mxCell id="fIQCeyDBSBlueGieeQsH-1" value="FaithTrackSP" style="swimlane;fontStyle=1;align=center;verticalAlign=top;childLayout=stackLayout;horizontal=1;startSize=26;horizontalStack=0;resizeParent=1;resizeParentMax=0;resizeLast=0;collapsible=1;marginBottom=0;" parent="1" vertex="1">
          <mxGeometry x="-1115.5" y="-1698" width="160" height="86" as="geometry" />
        </mxCell>
        <mxCell id="fIQCeyDBSBlueGieeQsH-2" value="+blackCross: int" style="text;strokeColor=none;fillColor=none;align=left;verticalAlign=top;spacingLeft=4;spacingRight=4;overflow=hidden;rotatable=0;points=[[0,0.5],[1,0.5]];portConstraint=eastwest;" parent="fIQCeyDBSBlueGieeQsH-1" vertex="1">
          <mxGeometry y="26" width="160" height="26" as="geometry" />
        </mxCell>
        <mxCell id="fIQCeyDBSBlueGieeQsH-3" value="" style="line;strokeWidth=1;fillColor=none;align=left;verticalAlign=middle;spacingTop=-1;spacingLeft=3;spacingRight=3;rotatable=0;labelPosition=right;points=[];portConstraint=eastwest;" parent="fIQCeyDBSBlueGieeQsH-1" vertex="1">
          <mxGeometry y="52" width="160" height="8" as="geometry" />
        </mxCell>
        <mxCell id="fIQCeyDBSBlueGieeQsH-4" value="-blackCrossOn24()" style="text;strokeColor=none;fillColor=none;align=left;verticalAlign=top;spacingLeft=4;spacingRight=4;overflow=hidden;rotatable=0;points=[[0,0.5],[1,0.5]];portConstraint=eastwest;" parent="fIQCeyDBSBlueGieeQsH-1" vertex="1">
          <mxGeometry y="60" width="160" height="26" as="geometry" />
        </mxCell>
        <mxCell id="fIQCeyDBSBlueGieeQsH-5" value="actionToken" style="swimlane;fontStyle=1;align=center;verticalAlign=top;childLayout=stackLayout;horizontal=1;startSize=26;horizontalStack=0;resizeParent=1;resizeParentMax=0;resizeLast=0;collapsible=1;marginBottom=0;" parent="1" vertex="1">
          <mxGeometry x="40" y="-1587" width="160" height="86" as="geometry" />
        </mxCell>
        <mxCell id="fIQCeyDBSBlueGieeQsH-6" value="+ field: type" style="text;strokeColor=none;fillColor=none;align=left;verticalAlign=top;spacingLeft=4;spacingRight=4;overflow=hidden;rotatable=0;points=[[0,0.5],[1,0.5]];portConstraint=eastwest;" parent="fIQCeyDBSBlueGieeQsH-5" vertex="1">
          <mxGeometry y="26" width="160" height="26" as="geometry" />
        </mxCell>
        <mxCell id="fIQCeyDBSBlueGieeQsH-7" value="" style="line;strokeWidth=1;fillColor=none;align=left;verticalAlign=middle;spacingTop=-1;spacingLeft=3;spacingRight=3;rotatable=0;labelPosition=right;points=[];portConstraint=eastwest;" parent="fIQCeyDBSBlueGieeQsH-5" vertex="1">
          <mxGeometry y="52" width="160" height="8" as="geometry" />
        </mxCell>
        <mxCell id="fIQCeyDBSBlueGieeQsH-8" value="+ method(type): type" style="text;strokeColor=none;fillColor=none;align=left;verticalAlign=top;spacingLeft=4;spacingRight=4;overflow=hidden;rotatable=0;points=[[0,0.5],[1,0.5]];portConstraint=eastwest;" parent="fIQCeyDBSBlueGieeQsH-5" vertex="1">
          <mxGeometry y="60" width="160" height="26" as="geometry" />
        </mxCell>
        <mxCell id="fIQCeyDBSBlueGieeQsH-9" value="Extends" style="endArrow=block;endSize=16;endFill=0;html=1;entryX=0.5;entryY=0;entryDx=0;entryDy=0;" parent="1" target="e2Iy07mbepDIcA7AyD_o-25" edge="1">
          <mxGeometry width="160" relative="1" as="geometry">
            <mxPoint x="-640" y="-2380" as="sourcePoint" />
            <mxPoint x="-545" y="-2159" as="targetPoint" />
          </mxGeometry>
        </mxCell>
        <mxCell id="fIQCeyDBSBlueGieeQsH-10" value="ActionTokenDeck" style="swimlane;fontStyle=1;align=center;verticalAlign=top;childLayout=stackLayout;horizontal=1;startSize=26;horizontalStack=0;resizeParent=1;resizeParentMax=0;resizeLast=0;collapsible=1;marginBottom=0;" parent="1" vertex="1">
          <mxGeometry x="-720" y="-2460" width="180" height="112" as="geometry" />
        </mxCell>
        <mxCell id="fIQCeyDBSBlueGieeQsH-11" value="-deck: ArrayList&lt;ActionToken&gt;" style="text;strokeColor=none;fillColor=none;align=left;verticalAlign=top;spacingLeft=4;spacingRight=4;overflow=hidden;rotatable=0;points=[[0,0.5],[1,0.5]];portConstraint=eastwest;" parent="fIQCeyDBSBlueGieeQsH-10" vertex="1">
          <mxGeometry y="26" width="180" height="26" as="geometry" />
        </mxCell>
        <mxCell id="fIQCeyDBSBlueGieeQsH-12" value="" style="line;strokeWidth=1;fillColor=none;align=left;verticalAlign=middle;spacingTop=-1;spacingLeft=3;spacingRight=3;rotatable=0;labelPosition=right;points=[];portConstraint=eastwest;" parent="fIQCeyDBSBlueGieeQsH-10" vertex="1">
          <mxGeometry y="52" width="180" height="8" as="geometry" />
        </mxCell>
        <mxCell id="fIQCeyDBSBlueGieeQsH-13" value="+draw(): ActionToken" style="text;strokeColor=none;fillColor=none;align=left;verticalAlign=top;spacingLeft=4;spacingRight=4;overflow=hidden;rotatable=0;points=[[0,0.5],[1,0.5]];portConstraint=eastwest;" parent="fIQCeyDBSBlueGieeQsH-10" vertex="1">
          <mxGeometry y="60" width="180" height="26" as="geometry" />
        </mxCell>
        <mxCell id="fIQCeyDBSBlueGieeQsH-15" value="-shuffle()" style="text;strokeColor=none;fillColor=none;align=left;verticalAlign=top;spacingLeft=4;spacingRight=4;overflow=hidden;rotatable=0;points=[[0,0.5],[1,0.5]];portConstraint=eastwest;" parent="fIQCeyDBSBlueGieeQsH-10" vertex="1">
          <mxGeometry y="86" width="180" height="26" as="geometry" />
        </mxCell>
        <mxCell id="fIQCeyDBSBlueGieeQsH-16" value="" style="endArrow=diamondThin;endFill=1;endSize=24;html=1;entryX=1.006;entryY=0.152;entryDx=0;entryDy=0;entryPerimeter=0;exitX=0.331;exitY=-0.059;exitDx=0;exitDy=0;exitPerimeter=0;" parent="1" source="e2Iy07mbepDIcA7AyD_o-29" target="fIQCeyDBSBlueGieeQsH-10" edge="1">
          <mxGeometry width="160" relative="1" as="geometry">
            <mxPoint x="-420" y="-2410" as="sourcePoint" />
            <mxPoint x="-360" y="-2450" as="targetPoint" />
            <Array as="points">
              <mxPoint x="-190" y="-2150" />
              <mxPoint x="-260" y="-2150" />
              <mxPoint x="-260" y="-2220" />
              <mxPoint x="-320" y="-2220" />
              <mxPoint x="-320" y="-2443" />
            </Array>
          </mxGeometry>
        </mxCell>
        <mxCell id="fIQCeyDBSBlueGieeQsH-17" value="Extends" style="endArrow=block;endSize=16;endFill=0;html=1;exitX=0;exitY=0.457;exitDx=0;exitDy=0;exitPerimeter=0;" parent="1" source="fIQCeyDBSBlueGieeQsH-6" target="e2Iy07mbepDIcA7AyD_o-29" edge="1">
          <mxGeometry width="160" relative="1" as="geometry">
            <mxPoint x="-40" y="-1550" as="sourcePoint" />
            <mxPoint x="-460" y="-1850" as="targetPoint" />
            <Array as="points">
              <mxPoint x="-280" y="-1550" />
              <mxPoint x="-280" y="-1950" />
              <mxPoint x="-160" y="-1950" />
            </Array>
          </mxGeometry>
        </mxCell>
        <mxCell id="fIQCeyDBSBlueGieeQsH-18" value="GreenActionToken" style="swimlane;fontStyle=1;align=center;verticalAlign=top;childLayout=stackLayout;horizontal=1;startSize=26;horizontalStack=0;resizeParent=1;resizeParentMax=0;resizeLast=0;collapsible=1;marginBottom=0;" parent="1" vertex="1">
          <mxGeometry x="290" y="-1472" width="160" height="60" as="geometry" />
        </mxCell>
        <mxCell id="fIQCeyDBSBlueGieeQsH-19" value="-whatIAm: Type" style="text;strokeColor=none;fillColor=none;align=left;verticalAlign=top;spacingLeft=4;spacingRight=4;overflow=hidden;rotatable=0;points=[[0,0.5],[1,0.5]];portConstraint=eastwest;" parent="fIQCeyDBSBlueGieeQsH-18" vertex="1">
          <mxGeometry y="26" width="160" height="26" as="geometry" />
        </mxCell>
        <mxCell id="fIQCeyDBSBlueGieeQsH-20" value="" style="line;strokeWidth=1;fillColor=none;align=left;verticalAlign=middle;spacingTop=-1;spacingLeft=3;spacingRight=3;rotatable=0;labelPosition=right;points=[];portConstraint=eastwest;" parent="fIQCeyDBSBlueGieeQsH-18" vertex="1">
          <mxGeometry y="52" width="160" height="8" as="geometry" />
        </mxCell>
        <mxCell id="fIQCeyDBSBlueGieeQsH-22" value="YellowActionToken" style="swimlane;fontStyle=1;align=center;verticalAlign=top;childLayout=stackLayout;horizontal=1;startSize=26;horizontalStack=0;resizeParent=1;resizeParentMax=0;resizeLast=0;collapsible=1;marginBottom=0;" parent="1" vertex="1">
          <mxGeometry x="290" y="-1390" width="160" height="60" as="geometry" />
        </mxCell>
        <mxCell id="a6X4JPlQvPFI4oXuv8M3-4" value="-whatIAm: Type" style="text;strokeColor=none;fillColor=none;align=left;verticalAlign=top;spacingLeft=4;spacingRight=4;overflow=hidden;rotatable=0;points=[[0,0.5],[1,0.5]];portConstraint=eastwest;" parent="fIQCeyDBSBlueGieeQsH-22" vertex="1">
          <mxGeometry y="26" width="160" height="26" as="geometry" />
        </mxCell>
        <mxCell id="fIQCeyDBSBlueGieeQsH-24" value="" style="line;strokeWidth=1;fillColor=none;align=left;verticalAlign=middle;spacingTop=-1;spacingLeft=3;spacingRight=3;rotatable=0;labelPosition=right;points=[];portConstraint=eastwest;" parent="fIQCeyDBSBlueGieeQsH-22" vertex="1">
          <mxGeometry y="52" width="160" height="8" as="geometry" />
        </mxCell>
        <mxCell id="a6X4JPlQvPFI4oXuv8M3-5" value="BlueActionToken" style="swimlane;fontStyle=1;align=center;verticalAlign=top;childLayout=stackLayout;horizontal=1;startSize=26;horizontalStack=0;resizeParent=1;resizeParentMax=0;resizeLast=0;collapsible=1;marginBottom=0;" parent="1" vertex="1">
          <mxGeometry x="290" y="-1312" width="160" height="60" as="geometry" />
        </mxCell>
        <mxCell id="a6X4JPlQvPFI4oXuv8M3-9" value="-whatIAm: Type" style="text;strokeColor=none;fillColor=none;align=left;verticalAlign=top;spacingLeft=4;spacingRight=4;overflow=hidden;rotatable=0;points=[[0,0.5],[1,0.5]];portConstraint=eastwest;" parent="a6X4JPlQvPFI4oXuv8M3-5" vertex="1">
          <mxGeometry y="26" width="160" height="26" as="geometry" />
        </mxCell>
        <mxCell id="a6X4JPlQvPFI4oXuv8M3-7" value="" style="line;strokeWidth=1;fillColor=none;align=left;verticalAlign=middle;spacingTop=-1;spacingLeft=3;spacingRight=3;rotatable=0;labelPosition=right;points=[];portConstraint=eastwest;" parent="a6X4JPlQvPFI4oXuv8M3-5" vertex="1">
          <mxGeometry y="52" width="160" height="8" as="geometry" />
        </mxCell>
        <mxCell id="a6X4JPlQvPFI4oXuv8M3-10" value="PurpleActionToken" style="swimlane;fontStyle=1;align=center;verticalAlign=top;childLayout=stackLayout;horizontal=1;startSize=26;horizontalStack=0;resizeParent=1;resizeParentMax=0;resizeLast=0;collapsible=1;marginBottom=0;" parent="1" vertex="1">
          <mxGeometry x="290" y="-1230" width="160" height="60" as="geometry" />
        </mxCell>
        <mxCell id="a6X4JPlQvPFI4oXuv8M3-11" value="-whatIAm: Type" style="text;strokeColor=none;fillColor=none;align=left;verticalAlign=top;spacingLeft=4;spacingRight=4;overflow=hidden;rotatable=0;points=[[0,0.5],[1,0.5]];portConstraint=eastwest;" parent="a6X4JPlQvPFI4oXuv8M3-10" vertex="1">
          <mxGeometry y="26" width="160" height="26" as="geometry" />
        </mxCell>
        <mxCell id="a6X4JPlQvPFI4oXuv8M3-12" value="" style="line;strokeWidth=1;fillColor=none;align=left;verticalAlign=middle;spacingTop=-1;spacingLeft=3;spacingRight=3;rotatable=0;labelPosition=right;points=[];portConstraint=eastwest;" parent="a6X4JPlQvPFI4oXuv8M3-10" vertex="1">
          <mxGeometry y="52" width="160" height="8" as="geometry" />
        </mxCell>
        <mxCell id="a6X4JPlQvPFI4oXuv8M3-13" value="" style="endArrow=none;html=1;exitX=0.511;exitY=0.997;exitDx=0;exitDy=0;exitPerimeter=0;entryX=1.002;entryY=0.643;entryDx=0;entryDy=0;entryPerimeter=0;" parent="1" source="zsWBfRV9gmnBReKQ3E4T-13" target="j_IWQZukRgsDgJ5B7h0S-189" edge="1">
          <mxGeometry width="50" height="50" relative="1" as="geometry">
            <mxPoint x="-980" y="-890" as="sourcePoint" />
            <mxPoint x="600" y="-2380" as="targetPoint" />
            <Array as="points">
              <mxPoint x="-1353" y="-890" />
              <mxPoint x="590" y="-890" />
              <mxPoint x="590" y="-2402" />
            </Array>
          </mxGeometry>
        </mxCell>
        <mxCell id="a6X4JPlQvPFI4oXuv8M3-14" value="" style="endArrow=none;html=1;exitX=1;exitY=0.5;exitDx=0;exitDy=0;entryX=1;entryY=0.859;entryDx=0;entryDy=0;entryPerimeter=0;" parent="1" source="j_IWQZukRgsDgJ5B7h0S-138" target="j_IWQZukRgsDgJ5B7h0S-190" edge="1">
          <mxGeometry width="50" height="50" relative="1" as="geometry">
            <mxPoint x="420" y="-1800" as="sourcePoint" />
            <mxPoint x="540" y="-2330" as="targetPoint" />
            <Array as="points">
              <mxPoint x="560" y="-1801" />
              <mxPoint x="560" y="-2371" />
            </Array>
          </mxGeometry>
        </mxCell>
        <mxCell id="a6X4JPlQvPFI4oXuv8M3-17" value="Extends" style="endArrow=block;endSize=16;endFill=0;html=1;" parent="1" source="fIQCeyDBSBlueGieeQsH-1" target="j_IWQZukRgsDgJ5B7h0S-74" edge="1">
          <mxGeometry width="160" relative="1" as="geometry">
            <mxPoint x="-1060" y="-1600" as="sourcePoint" />
            <mxPoint x="-900" y="-1600" as="targetPoint" />
          </mxGeometry>
        </mxCell>
        <mxCell id="a6X4JPlQvPFI4oXuv8M3-18" value="BlackCross2Token" style="swimlane;fontStyle=1;align=center;verticalAlign=top;childLayout=stackLayout;horizontal=1;startSize=26;horizontalStack=0;resizeParent=1;resizeParentMax=0;resizeLast=0;collapsible=1;marginBottom=0;" parent="1" vertex="1">
          <mxGeometry x="290" y="-1150" width="160" height="60" as="geometry" />
        </mxCell>
        <mxCell id="a6X4JPlQvPFI4oXuv8M3-26" value="-whatIAm: Type" style="text;strokeColor=none;fillColor=none;align=left;verticalAlign=top;spacingLeft=4;spacingRight=4;overflow=hidden;rotatable=0;points=[[0,0.5],[1,0.5]];portConstraint=eastwest;" parent="a6X4JPlQvPFI4oXuv8M3-18" vertex="1">
          <mxGeometry y="26" width="160" height="26" as="geometry" />
        </mxCell>
        <mxCell id="a6X4JPlQvPFI4oXuv8M3-20" value="" style="line;strokeWidth=1;fillColor=none;align=left;verticalAlign=middle;spacingTop=-1;spacingLeft=3;spacingRight=3;rotatable=0;labelPosition=right;points=[];portConstraint=eastwest;" parent="a6X4JPlQvPFI4oXuv8M3-18" vertex="1">
          <mxGeometry y="52" width="160" height="8" as="geometry" />
        </mxCell>
        <mxCell id="a6X4JPlQvPFI4oXuv8M3-22" value="BlackCross1Token" style="swimlane;fontStyle=1;align=center;verticalAlign=top;childLayout=stackLayout;horizontal=1;startSize=26;horizontalStack=0;resizeParent=1;resizeParentMax=0;resizeLast=0;collapsible=1;marginBottom=0;" parent="1" vertex="1">
          <mxGeometry x="290" y="-1070" width="160" height="60" as="geometry" />
        </mxCell>
        <mxCell id="a6X4JPlQvPFI4oXuv8M3-27" value=" -whatIAm: Type" style="text;strokeColor=none;fillColor=none;align=left;verticalAlign=top;spacingLeft=4;spacingRight=4;overflow=hidden;rotatable=0;points=[[0,0.5],[1,0.5]];portConstraint=eastwest;" parent="a6X4JPlQvPFI4oXuv8M3-22" vertex="1">
          <mxGeometry y="26" width="160" height="26" as="geometry" />
        </mxCell>
        <mxCell id="a6X4JPlQvPFI4oXuv8M3-24" value="" style="line;strokeWidth=1;fillColor=none;align=left;verticalAlign=middle;spacingTop=-1;spacingLeft=3;spacingRight=3;rotatable=0;labelPosition=right;points=[];portConstraint=eastwest;" parent="a6X4JPlQvPFI4oXuv8M3-22" vertex="1">
          <mxGeometry y="52" width="160" height="8" as="geometry" />
        </mxCell>
        <mxCell id="a6X4JPlQvPFI4oXuv8M3-28" value="Extends" style="endArrow=block;endSize=16;endFill=0;html=1;" parent="1" source="fIQCeyDBSBlueGieeQsH-5" target="a6X4JPlQvPFI4oXuv8M3-22" edge="1">
          <mxGeometry x="-0.8993" width="160" relative="1" as="geometry">
            <mxPoint x="100" y="-1380" as="sourcePoint" />
            <mxPoint x="260" y="-1380" as="targetPoint" />
            <Array as="points">
              <mxPoint x="121" y="-1040" />
            </Array>
            <mxPoint as="offset" />
          </mxGeometry>
        </mxCell>
        <mxCell id="a6X4JPlQvPFI4oXuv8M3-29" value="" style="endArrow=none;html=1;entryX=0;entryY=0.5;entryDx=0;entryDy=0;" parent="1" target="fIQCeyDBSBlueGieeQsH-19" edge="1">
          <mxGeometry width="50" height="50" relative="1" as="geometry">
            <mxPoint x="120" y="-1433" as="sourcePoint" />
            <mxPoint x="240" y="-1420" as="targetPoint" />
          </mxGeometry>
        </mxCell>
        <mxCell id="a6X4JPlQvPFI4oXuv8M3-30" value="" style="endArrow=none;html=1;entryX=0.001;entryY=0.078;entryDx=0;entryDy=0;entryPerimeter=0;" parent="1" target="a6X4JPlQvPFI4oXuv8M3-4" edge="1">
          <mxGeometry width="50" height="50" relative="1" as="geometry">
            <mxPoint x="120" y="-1362" as="sourcePoint" />
            <mxPoint x="290" y="-1363" as="targetPoint" />
          </mxGeometry>
        </mxCell>
        <mxCell id="a6X4JPlQvPFI4oXuv8M3-31" value="" style="endArrow=none;html=1;entryX=0.001;entryY=0.366;entryDx=0;entryDy=0;entryPerimeter=0;" parent="1" target="a6X4JPlQvPFI4oXuv8M3-5" edge="1">
          <mxGeometry width="50" height="50" relative="1" as="geometry">
            <mxPoint x="120" y="-1290" as="sourcePoint" />
            <mxPoint x="260" y="-1290" as="targetPoint" />
          </mxGeometry>
        </mxCell>
        <mxCell id="a6X4JPlQvPFI4oXuv8M3-32" value="" style="endArrow=none;html=1;entryX=0.003;entryY=0.167;entryDx=0;entryDy=0;entryPerimeter=0;" parent="1" target="a6X4JPlQvPFI4oXuv8M3-11" edge="1">
          <mxGeometry width="50" height="50" relative="1" as="geometry">
            <mxPoint x="120" y="-1200" as="sourcePoint" />
            <mxPoint x="260" y="-1200" as="targetPoint" />
          </mxGeometry>
        </mxCell>
        <mxCell id="a6X4JPlQvPFI4oXuv8M3-33" value="" style="endArrow=none;html=1;" parent="1" edge="1">
          <mxGeometry width="50" height="50" relative="1" as="geometry">
            <mxPoint x="120" y="-1140" as="sourcePoint" />
            <mxPoint x="290" y="-1140" as="targetPoint" />
          </mxGeometry>
        </mxCell>
        <mxCell id="a6X4JPlQvPFI4oXuv8M3-37" value="" style="endArrow=none;html=1;entryX=-0.003;entryY=0.35;entryDx=0;entryDy=0;entryPerimeter=0;" parent="1" source="Ni3QF3jS_E6Amse3e-I2-1" target="3B-92UQkA-Mj99n0AdDV-10" edge="1">
          <mxGeometry width="50" height="50" relative="1" as="geometry">
            <mxPoint x="-2080" y="-1760" as="sourcePoint" />
            <mxPoint x="-1941" y="-1741" as="targetPoint" />
          </mxGeometry>
        </mxCell>
        <mxCell id="a6X4JPlQvPFI4oXuv8M3-38" value="" style="endArrow=none;html=1;entryX=-0.001;entryY=0.038;entryDx=0;entryDy=0;entryPerimeter=0;" parent="1" source="bMicbcqdzmjaKOhH1kFO-2" target="zsWBfRV9gmnBReKQ3E4T-49" edge="1">
          <mxGeometry width="50" height="50" relative="1" as="geometry">
            <mxPoint x="-2090" y="-1570" as="sourcePoint" />
            <mxPoint x="-1939" y="-1604" as="targetPoint" />
          </mxGeometry>
        </mxCell>
      </root>
    </mxGraphModel>
  </diagram>
</mxfile>
